<mxfile host="Electron" modified="2024-04-02T19:11:47.084Z" agent="Mozilla/5.0 (X11; Linux x86_64) AppleWebKit/537.36 (KHTML, like Gecko) draw.io/24.1.0 Chrome/120.0.6099.109 Electron/28.1.0 Safari/537.36" etag="1QXpcf6YRwXUbCyKAzfC" version="24.1.0" type="device" pages="2">
  <diagram name="pl_stage" id="sQZPAQ0m2a0brsjAJA3f">
    <mxGraphModel dx="1378" dy="843" grid="1" gridSize="10" guides="1" tooltips="1" connect="1" arrows="1" fold="1" page="1" pageScale="1" pageWidth="10000" pageHeight="10000" math="0" shadow="0">
      <root>
        <mxCell id="0" />
        <mxCell id="1" parent="0" />
        <mxCell id="BS4bdiccRaYcMO0Jhtpn-2" value="In_Valid" style="text;html=1;align=right;verticalAlign=middle;whiteSpace=wrap;rounded=0;" parent="1" vertex="1">
          <mxGeometry x="340" y="40" width="60" height="20" as="geometry" />
        </mxCell>
        <mxCell id="BS4bdiccRaYcMO0Jhtpn-42" value="Out_Data" style="text;html=1;align=left;verticalAlign=middle;whiteSpace=wrap;rounded=0;" parent="1" vertex="1">
          <mxGeometry x="690" y="40" width="60" height="20" as="geometry" />
        </mxCell>
        <mxCell id="BS4bdiccRaYcMO0Jhtpn-43" value="Out_Valid" style="text;html=1;align=left;verticalAlign=middle;whiteSpace=wrap;rounded=0;" parent="1" vertex="1">
          <mxGeometry x="690" y="100" width="60" height="20" as="geometry" />
        </mxCell>
        <mxCell id="R5z1-6jqIsE6iVicjENk-1" style="vsdxID=5;fillColor=none;gradientColor=none;strokeColor=none;labelBackgroundColor=none;rounded=0;html=1;whiteSpace=wrap;" parent="1" vertex="1">
          <mxGeometry x="420" y="40" width="50" height="40" as="geometry" />
        </mxCell>
        <mxCell id="R5z1-6jqIsE6iVicjENk-2" style="vsdxID=6;fillColor=#FFFFFF;gradientColor=none;shape=stencil(nZBLDoAgDERP0z3SIyjew0SURgSD+Lu9kMZoXLhwN9O+tukAlrNpJg1SzDH4QW/URgNYgZTkjA4UkwJUgGXng+6DX1zLfmoymdXo17xh5zmRJ6Q42BWCfc2oJfdAr+Yv+AP9Cb7OJ3H/2JG1HNGz/84klThPVCc=);strokeColor=#000000;labelBackgroundColor=none;rounded=0;html=1;whiteSpace=wrap;" parent="R5z1-6jqIsE6iVicjENk-1" vertex="1">
          <mxGeometry x="20" width="30" height="40" as="geometry" />
        </mxCell>
        <mxCell id="R5z1-6jqIsE6iVicjENk-3" value="&lt;font style=&quot;font-size:14px;font-family:Calibri;color:#000000;direction:ltr;letter-spacing:0px;line-height:120%;opacity:1&quot;&gt;D&lt;br/&gt;&lt;/font&gt;" style="verticalAlign=middle;align=center;vsdxID=10;fillColor=none;gradientColor=none;shape=stencil(nZBLDoAgDERP0z3SIyjew0SURgSD+Lu9kMZoXLhwN9O+tukAlrNpJg1SzDH4QW/URgNYgZTkjA4UkwJUgGXng+6DX1zLfmoymdXo17xh5zmRJ6Q42BWCfc2oJfdAr+Yv+AP9Cb7OJ3H/2JG1HNGz/84klThPVCc=);strokeColor=none;spacingTop=-3;spacingBottom=-3;spacingLeft=-3;spacingRight=-3;labelBackgroundColor=none;rounded=0;html=1;whiteSpace=wrap;" parent="R5z1-6jqIsE6iVicjENk-1" vertex="1">
          <mxGeometry x="22" y="5" width="10" height="10" as="geometry" />
        </mxCell>
        <mxCell id="R5z1-6jqIsE6iVicjENk-4" value="&lt;font style=&quot;font-size:14px;font-family:Calibri;color:#000000;direction:ltr;letter-spacing:0px;line-height:120%;opacity:1&quot;&gt;Q&lt;br/&gt;&lt;/font&gt;" style="verticalAlign=middle;align=center;vsdxID=11;fillColor=none;gradientColor=none;shape=stencil(nZBLDoAgDERP0z3SIyjew0SURgSD+Lu9kMZoXLhwN9O+tukAlrNpJg1SzDH4QW/URgNYgZTkjA4UkwJUgGXng+6DX1zLfmoymdXo17xh5zmRJ6Q42BWCfc2oJfdAr+Yv+AP9Cb7OJ3H/2JG1HNGz/84klThPVCc=);strokeColor=none;spacingTop=-3;spacingBottom=-3;spacingLeft=-3;spacingRight=-3;labelBackgroundColor=none;rounded=0;html=1;whiteSpace=wrap;" parent="R5z1-6jqIsE6iVicjENk-1" vertex="1">
          <mxGeometry x="38" y="5" width="10" height="10" as="geometry" />
        </mxCell>
        <mxCell id="R5z1-6jqIsE6iVicjENk-5" style="vsdxID=7;edgeStyle=none;startArrow=none;endArrow=none;startSize=5;endSize=5;strokeColor=#000000;spacingTop=0;spacingBottom=0;spacingLeft=0;spacingRight=0;verticalAlign=middle;html=1;labelBackgroundColor=#ffffff;rounded=0;" parent="R5z1-6jqIsE6iVicjENk-1" edge="1">
          <mxGeometry relative="1" as="geometry">
            <Array as="points" />
            <mxPoint x="32" y="40" as="sourcePoint" />
            <mxPoint x="36" y="32" as="targetPoint" />
          </mxGeometry>
        </mxCell>
        <mxCell id="R5z1-6jqIsE6iVicjENk-6" style="vsdxID=8;edgeStyle=none;startArrow=none;endArrow=none;startSize=5;endSize=5;strokeColor=#000000;spacingTop=0;spacingBottom=0;spacingLeft=0;spacingRight=0;verticalAlign=middle;html=1;labelBackgroundColor=#ffffff;rounded=0;" parent="R5z1-6jqIsE6iVicjENk-1" edge="1">
          <mxGeometry relative="1" as="geometry">
            <Array as="points" />
            <mxPoint x="36" y="32" as="sourcePoint" />
            <mxPoint x="40" y="40" as="targetPoint" />
          </mxGeometry>
        </mxCell>
        <mxCell id="R5z1-6jqIsE6iVicjENk-7" style="vsdxID=9;edgeStyle=none;startArrow=none;endArrow=classic;startSize=5;endSize=5;strokeColor=#000000;spacingTop=0;spacingBottom=0;spacingLeft=0;spacingRight=0;verticalAlign=middle;html=1;labelBackgroundColor=#ffffff;rounded=0;exitX=1;exitY=0.5;exitDx=0;exitDy=0;" parent="R5z1-6jqIsE6iVicjENk-1" source="BS4bdiccRaYcMO0Jhtpn-2" edge="1">
          <mxGeometry relative="1" as="geometry">
            <mxPoint as="offset" />
            <Array as="points" />
            <mxPoint y="10" as="sourcePoint" />
            <mxPoint x="20" y="10" as="targetPoint" />
          </mxGeometry>
        </mxCell>
        <mxCell id="R5z1-6jqIsE6iVicjENk-8" style="vsdxID=5;fillColor=none;gradientColor=none;strokeColor=none;labelBackgroundColor=none;rounded=0;html=1;whiteSpace=wrap;" parent="1" vertex="1">
          <mxGeometry x="420" y="100" width="50" height="40" as="geometry" />
        </mxCell>
        <mxCell id="R5z1-6jqIsE6iVicjENk-9" style="vsdxID=6;fillColor=#FFFFFF;gradientColor=none;shape=stencil(nZBLDoAgDERP0z3SIyjew0SURgSD+Lu9kMZoXLhwN9O+tukAlrNpJg1SzDH4QW/URgNYgZTkjA4UkwJUgGXng+6DX1zLfmoymdXo17xh5zmRJ6Q42BWCfc2oJfdAr+Yv+AP9Cb7OJ3H/2JG1HNGz/84klThPVCc=);strokeColor=#000000;labelBackgroundColor=none;rounded=0;html=1;whiteSpace=wrap;" parent="R5z1-6jqIsE6iVicjENk-8" vertex="1">
          <mxGeometry x="20" width="30" height="40" as="geometry" />
        </mxCell>
        <mxCell id="R5z1-6jqIsE6iVicjENk-10" value="&lt;font style=&quot;font-size:14px;font-family:Calibri;color:#000000;direction:ltr;letter-spacing:0px;line-height:120%;opacity:1&quot;&gt;D&lt;br/&gt;&lt;/font&gt;" style="verticalAlign=middle;align=center;vsdxID=10;fillColor=none;gradientColor=none;shape=stencil(nZBLDoAgDERP0z3SIyjew0SURgSD+Lu9kMZoXLhwN9O+tukAlrNpJg1SzDH4QW/URgNYgZTkjA4UkwJUgGXng+6DX1zLfmoymdXo17xh5zmRJ6Q42BWCfc2oJfdAr+Yv+AP9Cb7OJ3H/2JG1HNGz/84klThPVCc=);strokeColor=none;spacingTop=-3;spacingBottom=-3;spacingLeft=-3;spacingRight=-3;labelBackgroundColor=none;rounded=0;html=1;whiteSpace=wrap;" parent="R5z1-6jqIsE6iVicjENk-8" vertex="1">
          <mxGeometry x="22" y="5" width="10" height="10" as="geometry" />
        </mxCell>
        <mxCell id="R5z1-6jqIsE6iVicjENk-11" value="&lt;font style=&quot;font-size:14px;font-family:Calibri;color:#000000;direction:ltr;letter-spacing:0px;line-height:120%;opacity:1&quot;&gt;Q&lt;br/&gt;&lt;/font&gt;" style="verticalAlign=middle;align=center;vsdxID=11;fillColor=none;gradientColor=none;shape=stencil(nZBLDoAgDERP0z3SIyjew0SURgSD+Lu9kMZoXLhwN9O+tukAlrNpJg1SzDH4QW/URgNYgZTkjA4UkwJUgGXng+6DX1zLfmoymdXo17xh5zmRJ6Q42BWCfc2oJfdAr+Yv+AP9Cb7OJ3H/2JG1HNGz/84klThPVCc=);strokeColor=none;spacingTop=-3;spacingBottom=-3;spacingLeft=-3;spacingRight=-3;labelBackgroundColor=none;rounded=0;html=1;whiteSpace=wrap;" parent="R5z1-6jqIsE6iVicjENk-8" vertex="1">
          <mxGeometry x="38" y="5" width="10" height="10" as="geometry" />
        </mxCell>
        <mxCell id="R5z1-6jqIsE6iVicjENk-12" style="vsdxID=7;edgeStyle=none;startArrow=none;endArrow=none;startSize=5;endSize=5;strokeColor=#000000;spacingTop=0;spacingBottom=0;spacingLeft=0;spacingRight=0;verticalAlign=middle;html=1;labelBackgroundColor=#ffffff;rounded=0;" parent="R5z1-6jqIsE6iVicjENk-8" edge="1">
          <mxGeometry relative="1" as="geometry">
            <Array as="points" />
            <mxPoint x="32" y="40" as="sourcePoint" />
            <mxPoint x="36" y="32" as="targetPoint" />
          </mxGeometry>
        </mxCell>
        <mxCell id="R5z1-6jqIsE6iVicjENk-13" style="vsdxID=8;edgeStyle=none;startArrow=none;endArrow=none;startSize=5;endSize=5;strokeColor=#000000;spacingTop=0;spacingBottom=0;spacingLeft=0;spacingRight=0;verticalAlign=middle;html=1;labelBackgroundColor=#ffffff;rounded=0;" parent="R5z1-6jqIsE6iVicjENk-8" edge="1">
          <mxGeometry relative="1" as="geometry">
            <Array as="points" />
            <mxPoint x="36" y="32" as="sourcePoint" />
            <mxPoint x="40" y="40" as="targetPoint" />
          </mxGeometry>
        </mxCell>
        <mxCell id="R5z1-6jqIsE6iVicjENk-14" style="vsdxID=9;edgeStyle=none;startArrow=none;endArrow=classic;startSize=5;endSize=5;strokeColor=#000000;spacingTop=0;spacingBottom=0;spacingLeft=0;spacingRight=0;verticalAlign=middle;html=1;labelBackgroundColor=#ffffff;rounded=0;" parent="R5z1-6jqIsE6iVicjENk-8" edge="1">
          <mxGeometry relative="1" as="geometry">
            <mxPoint as="offset" />
            <Array as="points" />
            <mxPoint x="-20" y="10" as="sourcePoint" />
            <mxPoint x="20" y="10" as="targetPoint" />
          </mxGeometry>
        </mxCell>
        <mxCell id="R5z1-6jqIsE6iVicjENk-15" style="vsdxID=5;fillColor=none;gradientColor=none;strokeColor=none;labelBackgroundColor=none;rounded=0;html=1;whiteSpace=wrap;" parent="1" vertex="1">
          <mxGeometry x="510" y="40" width="50" height="40" as="geometry" />
        </mxCell>
        <mxCell id="R5z1-6jqIsE6iVicjENk-16" style="vsdxID=6;fillColor=#FFFFFF;gradientColor=none;shape=stencil(nZBLDoAgDERP0z3SIyjew0SURgSD+Lu9kMZoXLhwN9O+tukAlrNpJg1SzDH4QW/URgNYgZTkjA4UkwJUgGXng+6DX1zLfmoymdXo17xh5zmRJ6Q42BWCfc2oJfdAr+Yv+AP9Cb7OJ3H/2JG1HNGz/84klThPVCc=);strokeColor=#000000;labelBackgroundColor=none;rounded=0;html=1;whiteSpace=wrap;" parent="R5z1-6jqIsE6iVicjENk-15" vertex="1">
          <mxGeometry x="20" width="30" height="40" as="geometry" />
        </mxCell>
        <mxCell id="R5z1-6jqIsE6iVicjENk-17" value="&lt;font style=&quot;font-size:14px;font-family:Calibri;color:#000000;direction:ltr;letter-spacing:0px;line-height:120%;opacity:1&quot;&gt;D&lt;br/&gt;&lt;/font&gt;" style="verticalAlign=middle;align=center;vsdxID=10;fillColor=none;gradientColor=none;shape=stencil(nZBLDoAgDERP0z3SIyjew0SURgSD+Lu9kMZoXLhwN9O+tukAlrNpJg1SzDH4QW/URgNYgZTkjA4UkwJUgGXng+6DX1zLfmoymdXo17xh5zmRJ6Q42BWCfc2oJfdAr+Yv+AP9Cb7OJ3H/2JG1HNGz/84klThPVCc=);strokeColor=none;spacingTop=-3;spacingBottom=-3;spacingLeft=-3;spacingRight=-3;labelBackgroundColor=none;rounded=0;html=1;whiteSpace=wrap;" parent="R5z1-6jqIsE6iVicjENk-15" vertex="1">
          <mxGeometry x="22" y="5" width="10" height="10" as="geometry" />
        </mxCell>
        <mxCell id="R5z1-6jqIsE6iVicjENk-18" value="&lt;font style=&quot;font-size:14px;font-family:Calibri;color:#000000;direction:ltr;letter-spacing:0px;line-height:120%;opacity:1&quot;&gt;Q&lt;br/&gt;&lt;/font&gt;" style="verticalAlign=middle;align=center;vsdxID=11;fillColor=none;gradientColor=none;shape=stencil(nZBLDoAgDERP0z3SIyjew0SURgSD+Lu9kMZoXLhwN9O+tukAlrNpJg1SzDH4QW/URgNYgZTkjA4UkwJUgGXng+6DX1zLfmoymdXo17xh5zmRJ6Q42BWCfc2oJfdAr+Yv+AP9Cb7OJ3H/2JG1HNGz/84klThPVCc=);strokeColor=none;spacingTop=-3;spacingBottom=-3;spacingLeft=-3;spacingRight=-3;labelBackgroundColor=none;rounded=0;html=1;whiteSpace=wrap;" parent="R5z1-6jqIsE6iVicjENk-15" vertex="1">
          <mxGeometry x="38" y="5" width="10" height="10" as="geometry" />
        </mxCell>
        <mxCell id="R5z1-6jqIsE6iVicjENk-19" style="vsdxID=7;edgeStyle=none;startArrow=none;endArrow=none;startSize=5;endSize=5;strokeColor=#000000;spacingTop=0;spacingBottom=0;spacingLeft=0;spacingRight=0;verticalAlign=middle;html=1;labelBackgroundColor=#ffffff;rounded=0;" parent="R5z1-6jqIsE6iVicjENk-15" edge="1">
          <mxGeometry relative="1" as="geometry">
            <Array as="points" />
            <mxPoint x="32" y="40" as="sourcePoint" />
            <mxPoint x="36" y="32" as="targetPoint" />
          </mxGeometry>
        </mxCell>
        <mxCell id="R5z1-6jqIsE6iVicjENk-20" style="vsdxID=8;edgeStyle=none;startArrow=none;endArrow=none;startSize=5;endSize=5;strokeColor=#000000;spacingTop=0;spacingBottom=0;spacingLeft=0;spacingRight=0;verticalAlign=middle;html=1;labelBackgroundColor=#ffffff;rounded=0;" parent="R5z1-6jqIsE6iVicjENk-15" edge="1">
          <mxGeometry relative="1" as="geometry">
            <Array as="points" />
            <mxPoint x="36" y="32" as="sourcePoint" />
            <mxPoint x="40" y="40" as="targetPoint" />
          </mxGeometry>
        </mxCell>
        <mxCell id="R5z1-6jqIsE6iVicjENk-22" style="vsdxID=5;fillColor=none;gradientColor=none;strokeColor=none;labelBackgroundColor=none;rounded=0;html=1;whiteSpace=wrap;" parent="1" vertex="1">
          <mxGeometry x="510" y="100" width="50" height="40" as="geometry" />
        </mxCell>
        <mxCell id="R5z1-6jqIsE6iVicjENk-23" style="vsdxID=6;fillColor=#FFFFFF;gradientColor=none;shape=stencil(nZBLDoAgDERP0z3SIyjew0SURgSD+Lu9kMZoXLhwN9O+tukAlrNpJg1SzDH4QW/URgNYgZTkjA4UkwJUgGXng+6DX1zLfmoymdXo17xh5zmRJ6Q42BWCfc2oJfdAr+Yv+AP9Cb7OJ3H/2JG1HNGz/84klThPVCc=);strokeColor=#000000;labelBackgroundColor=none;rounded=0;html=1;whiteSpace=wrap;" parent="R5z1-6jqIsE6iVicjENk-22" vertex="1">
          <mxGeometry x="20" width="30" height="40" as="geometry" />
        </mxCell>
        <mxCell id="R5z1-6jqIsE6iVicjENk-24" value="&lt;font style=&quot;font-size:14px;font-family:Calibri;color:#000000;direction:ltr;letter-spacing:0px;line-height:120%;opacity:1&quot;&gt;D&lt;br/&gt;&lt;/font&gt;" style="verticalAlign=middle;align=center;vsdxID=10;fillColor=none;gradientColor=none;shape=stencil(nZBLDoAgDERP0z3SIyjew0SURgSD+Lu9kMZoXLhwN9O+tukAlrNpJg1SzDH4QW/URgNYgZTkjA4UkwJUgGXng+6DX1zLfmoymdXo17xh5zmRJ6Q42BWCfc2oJfdAr+Yv+AP9Cb7OJ3H/2JG1HNGz/84klThPVCc=);strokeColor=none;spacingTop=-3;spacingBottom=-3;spacingLeft=-3;spacingRight=-3;labelBackgroundColor=none;rounded=0;html=1;whiteSpace=wrap;" parent="R5z1-6jqIsE6iVicjENk-22" vertex="1">
          <mxGeometry x="22" y="5" width="10" height="10" as="geometry" />
        </mxCell>
        <mxCell id="R5z1-6jqIsE6iVicjENk-25" value="&lt;font style=&quot;font-size:14px;font-family:Calibri;color:#000000;direction:ltr;letter-spacing:0px;line-height:120%;opacity:1&quot;&gt;Q&lt;br/&gt;&lt;/font&gt;" style="verticalAlign=middle;align=center;vsdxID=11;fillColor=none;gradientColor=none;shape=stencil(nZBLDoAgDERP0z3SIyjew0SURgSD+Lu9kMZoXLhwN9O+tukAlrNpJg1SzDH4QW/URgNYgZTkjA4UkwJUgGXng+6DX1zLfmoymdXo17xh5zmRJ6Q42BWCfc2oJfdAr+Yv+AP9Cb7OJ3H/2JG1HNGz/84klThPVCc=);strokeColor=none;spacingTop=-3;spacingBottom=-3;spacingLeft=-3;spacingRight=-3;labelBackgroundColor=none;rounded=0;html=1;whiteSpace=wrap;" parent="R5z1-6jqIsE6iVicjENk-22" vertex="1">
          <mxGeometry x="38" y="5" width="10" height="10" as="geometry" />
        </mxCell>
        <mxCell id="R5z1-6jqIsE6iVicjENk-26" style="vsdxID=7;edgeStyle=none;startArrow=none;endArrow=none;startSize=5;endSize=5;strokeColor=#000000;spacingTop=0;spacingBottom=0;spacingLeft=0;spacingRight=0;verticalAlign=middle;html=1;labelBackgroundColor=#ffffff;rounded=0;" parent="R5z1-6jqIsE6iVicjENk-22" edge="1">
          <mxGeometry relative="1" as="geometry">
            <Array as="points" />
            <mxPoint x="32" y="40" as="sourcePoint" />
            <mxPoint x="36" y="32" as="targetPoint" />
          </mxGeometry>
        </mxCell>
        <mxCell id="R5z1-6jqIsE6iVicjENk-27" style="vsdxID=8;edgeStyle=none;startArrow=none;endArrow=none;startSize=5;endSize=5;strokeColor=#000000;spacingTop=0;spacingBottom=0;spacingLeft=0;spacingRight=0;verticalAlign=middle;html=1;labelBackgroundColor=#ffffff;rounded=0;" parent="R5z1-6jqIsE6iVicjENk-22" edge="1">
          <mxGeometry relative="1" as="geometry">
            <Array as="points" />
            <mxPoint x="36" y="32" as="sourcePoint" />
            <mxPoint x="40" y="40" as="targetPoint" />
          </mxGeometry>
        </mxCell>
        <mxCell id="R5z1-6jqIsE6iVicjENk-28" style="vsdxID=9;edgeStyle=none;startArrow=none;endArrow=classic;startSize=5;endSize=5;strokeColor=#000000;spacingTop=0;spacingBottom=0;spacingLeft=0;spacingRight=0;verticalAlign=middle;html=1;labelBackgroundColor=#ffffff;rounded=0;exitX=1.001;exitY=0.242;exitDx=0;exitDy=0;exitPerimeter=0;" parent="R5z1-6jqIsE6iVicjENk-22" source="R5z1-6jqIsE6iVicjENk-9" edge="1">
          <mxGeometry relative="1" as="geometry">
            <mxPoint as="offset" />
            <Array as="points" />
            <mxPoint y="10" as="sourcePoint" />
            <mxPoint x="20" y="10" as="targetPoint" />
          </mxGeometry>
        </mxCell>
        <mxCell id="R5z1-6jqIsE6iVicjENk-29" style="vsdxID=5;fillColor=none;gradientColor=none;strokeColor=none;labelBackgroundColor=none;rounded=0;html=1;whiteSpace=wrap;" parent="1" vertex="1">
          <mxGeometry x="600" y="40" width="50" height="40" as="geometry" />
        </mxCell>
        <mxCell id="R5z1-6jqIsE6iVicjENk-30" style="vsdxID=6;fillColor=#FFFFFF;gradientColor=none;shape=stencil(nZBLDoAgDERP0z3SIyjew0SURgSD+Lu9kMZoXLhwN9O+tukAlrNpJg1SzDH4QW/URgNYgZTkjA4UkwJUgGXng+6DX1zLfmoymdXo17xh5zmRJ6Q42BWCfc2oJfdAr+Yv+AP9Cb7OJ3H/2JG1HNGz/84klThPVCc=);strokeColor=#000000;labelBackgroundColor=none;rounded=0;html=1;whiteSpace=wrap;" parent="R5z1-6jqIsE6iVicjENk-29" vertex="1">
          <mxGeometry x="20" width="30" height="40" as="geometry" />
        </mxCell>
        <mxCell id="R5z1-6jqIsE6iVicjENk-31" value="&lt;font style=&quot;font-size:14px;font-family:Calibri;color:#000000;direction:ltr;letter-spacing:0px;line-height:120%;opacity:1&quot;&gt;D&lt;br/&gt;&lt;/font&gt;" style="verticalAlign=middle;align=center;vsdxID=10;fillColor=none;gradientColor=none;shape=stencil(nZBLDoAgDERP0z3SIyjew0SURgSD+Lu9kMZoXLhwN9O+tukAlrNpJg1SzDH4QW/URgNYgZTkjA4UkwJUgGXng+6DX1zLfmoymdXo17xh5zmRJ6Q42BWCfc2oJfdAr+Yv+AP9Cb7OJ3H/2JG1HNGz/84klThPVCc=);strokeColor=none;spacingTop=-3;spacingBottom=-3;spacingLeft=-3;spacingRight=-3;labelBackgroundColor=none;rounded=0;html=1;whiteSpace=wrap;" parent="R5z1-6jqIsE6iVicjENk-29" vertex="1">
          <mxGeometry x="22" y="5" width="10" height="10" as="geometry" />
        </mxCell>
        <mxCell id="R5z1-6jqIsE6iVicjENk-32" value="&lt;font style=&quot;font-size:14px;font-family:Calibri;color:#000000;direction:ltr;letter-spacing:0px;line-height:120%;opacity:1&quot;&gt;Q&lt;br/&gt;&lt;/font&gt;" style="verticalAlign=middle;align=center;vsdxID=11;fillColor=none;gradientColor=none;shape=stencil(nZBLDoAgDERP0z3SIyjew0SURgSD+Lu9kMZoXLhwN9O+tukAlrNpJg1SzDH4QW/URgNYgZTkjA4UkwJUgGXng+6DX1zLfmoymdXo17xh5zmRJ6Q42BWCfc2oJfdAr+Yv+AP9Cb7OJ3H/2JG1HNGz/84klThPVCc=);strokeColor=none;spacingTop=-3;spacingBottom=-3;spacingLeft=-3;spacingRight=-3;labelBackgroundColor=none;rounded=0;html=1;whiteSpace=wrap;" parent="R5z1-6jqIsE6iVicjENk-29" vertex="1">
          <mxGeometry x="38" y="5" width="10" height="10" as="geometry" />
        </mxCell>
        <mxCell id="R5z1-6jqIsE6iVicjENk-33" style="vsdxID=7;edgeStyle=none;startArrow=none;endArrow=none;startSize=5;endSize=5;strokeColor=#000000;spacingTop=0;spacingBottom=0;spacingLeft=0;spacingRight=0;verticalAlign=middle;html=1;labelBackgroundColor=#ffffff;rounded=0;" parent="R5z1-6jqIsE6iVicjENk-29" edge="1">
          <mxGeometry relative="1" as="geometry">
            <Array as="points" />
            <mxPoint x="32" y="40" as="sourcePoint" />
            <mxPoint x="36" y="32" as="targetPoint" />
          </mxGeometry>
        </mxCell>
        <mxCell id="R5z1-6jqIsE6iVicjENk-34" style="vsdxID=8;edgeStyle=none;startArrow=none;endArrow=none;startSize=5;endSize=5;strokeColor=#000000;spacingTop=0;spacingBottom=0;spacingLeft=0;spacingRight=0;verticalAlign=middle;html=1;labelBackgroundColor=#ffffff;rounded=0;" parent="R5z1-6jqIsE6iVicjENk-29" edge="1">
          <mxGeometry relative="1" as="geometry">
            <Array as="points" />
            <mxPoint x="36" y="32" as="sourcePoint" />
            <mxPoint x="40" y="40" as="targetPoint" />
          </mxGeometry>
        </mxCell>
        <mxCell id="R5z1-6jqIsE6iVicjENk-35" style="vsdxID=9;edgeStyle=none;startArrow=none;endArrow=classic;startSize=5;endSize=5;strokeColor=#000000;spacingTop=0;spacingBottom=0;spacingLeft=0;spacingRight=0;verticalAlign=middle;html=1;labelBackgroundColor=#ffffff;rounded=0;exitX=1.008;exitY=0.249;exitDx=0;exitDy=0;exitPerimeter=0;" parent="R5z1-6jqIsE6iVicjENk-29" source="R5z1-6jqIsE6iVicjENk-16" edge="1">
          <mxGeometry relative="1" as="geometry">
            <mxPoint as="offset" />
            <Array as="points" />
            <mxPoint y="10" as="sourcePoint" />
            <mxPoint x="20" y="10" as="targetPoint" />
          </mxGeometry>
        </mxCell>
        <mxCell id="R5z1-6jqIsE6iVicjENk-36" style="vsdxID=5;fillColor=none;gradientColor=none;strokeColor=none;labelBackgroundColor=none;rounded=0;html=1;whiteSpace=wrap;" parent="1" vertex="1">
          <mxGeometry x="600" y="100" width="50" height="40" as="geometry" />
        </mxCell>
        <mxCell id="R5z1-6jqIsE6iVicjENk-37" style="vsdxID=6;fillColor=#FFFFFF;gradientColor=none;shape=stencil(nZBLDoAgDERP0z3SIyjew0SURgSD+Lu9kMZoXLhwN9O+tukAlrNpJg1SzDH4QW/URgNYgZTkjA4UkwJUgGXng+6DX1zLfmoymdXo17xh5zmRJ6Q42BWCfc2oJfdAr+Yv+AP9Cb7OJ3H/2JG1HNGz/84klThPVCc=);strokeColor=#000000;labelBackgroundColor=none;rounded=0;html=1;whiteSpace=wrap;" parent="R5z1-6jqIsE6iVicjENk-36" vertex="1">
          <mxGeometry x="20" width="30" height="40" as="geometry" />
        </mxCell>
        <mxCell id="R5z1-6jqIsE6iVicjENk-38" value="&lt;font style=&quot;font-size:14px;font-family:Calibri;color:#000000;direction:ltr;letter-spacing:0px;line-height:120%;opacity:1&quot;&gt;D&lt;br/&gt;&lt;/font&gt;" style="verticalAlign=middle;align=center;vsdxID=10;fillColor=none;gradientColor=none;shape=stencil(nZBLDoAgDERP0z3SIyjew0SURgSD+Lu9kMZoXLhwN9O+tukAlrNpJg1SzDH4QW/URgNYgZTkjA4UkwJUgGXng+6DX1zLfmoymdXo17xh5zmRJ6Q42BWCfc2oJfdAr+Yv+AP9Cb7OJ3H/2JG1HNGz/84klThPVCc=);strokeColor=none;spacingTop=-3;spacingBottom=-3;spacingLeft=-3;spacingRight=-3;labelBackgroundColor=none;rounded=0;html=1;whiteSpace=wrap;" parent="R5z1-6jqIsE6iVicjENk-36" vertex="1">
          <mxGeometry x="22" y="5" width="10" height="10" as="geometry" />
        </mxCell>
        <mxCell id="R5z1-6jqIsE6iVicjENk-39" value="&lt;font style=&quot;font-size:14px;font-family:Calibri;color:#000000;direction:ltr;letter-spacing:0px;line-height:120%;opacity:1&quot;&gt;Q&lt;br/&gt;&lt;/font&gt;" style="verticalAlign=middle;align=center;vsdxID=11;fillColor=none;gradientColor=none;shape=stencil(nZBLDoAgDERP0z3SIyjew0SURgSD+Lu9kMZoXLhwN9O+tukAlrNpJg1SzDH4QW/URgNYgZTkjA4UkwJUgGXng+6DX1zLfmoymdXo17xh5zmRJ6Q42BWCfc2oJfdAr+Yv+AP9Cb7OJ3H/2JG1HNGz/84klThPVCc=);strokeColor=none;spacingTop=-3;spacingBottom=-3;spacingLeft=-3;spacingRight=-3;labelBackgroundColor=none;rounded=0;html=1;whiteSpace=wrap;" parent="R5z1-6jqIsE6iVicjENk-36" vertex="1">
          <mxGeometry x="38" y="5" width="10" height="10" as="geometry" />
        </mxCell>
        <mxCell id="R5z1-6jqIsE6iVicjENk-40" style="vsdxID=7;edgeStyle=none;startArrow=none;endArrow=none;startSize=5;endSize=5;strokeColor=#000000;spacingTop=0;spacingBottom=0;spacingLeft=0;spacingRight=0;verticalAlign=middle;html=1;labelBackgroundColor=#ffffff;rounded=0;" parent="R5z1-6jqIsE6iVicjENk-36" edge="1">
          <mxGeometry relative="1" as="geometry">
            <Array as="points" />
            <mxPoint x="32" y="40" as="sourcePoint" />
            <mxPoint x="36" y="32" as="targetPoint" />
          </mxGeometry>
        </mxCell>
        <mxCell id="R5z1-6jqIsE6iVicjENk-41" style="vsdxID=8;edgeStyle=none;startArrow=none;endArrow=none;startSize=5;endSize=5;strokeColor=#000000;spacingTop=0;spacingBottom=0;spacingLeft=0;spacingRight=0;verticalAlign=middle;html=1;labelBackgroundColor=#ffffff;rounded=0;" parent="R5z1-6jqIsE6iVicjENk-36" edge="1">
          <mxGeometry relative="1" as="geometry">
            <Array as="points" />
            <mxPoint x="36" y="32" as="sourcePoint" />
            <mxPoint x="40" y="40" as="targetPoint" />
          </mxGeometry>
        </mxCell>
        <mxCell id="R5z1-6jqIsE6iVicjENk-42" style="vsdxID=9;edgeStyle=none;startArrow=none;endArrow=classic;startSize=5;endSize=5;strokeColor=#000000;spacingTop=0;spacingBottom=0;spacingLeft=0;spacingRight=0;verticalAlign=middle;html=1;labelBackgroundColor=#ffffff;rounded=0;exitX=0.981;exitY=0.249;exitDx=0;exitDy=0;exitPerimeter=0;" parent="R5z1-6jqIsE6iVicjENk-36" source="R5z1-6jqIsE6iVicjENk-23" edge="1">
          <mxGeometry relative="1" as="geometry">
            <mxPoint as="offset" />
            <Array as="points" />
            <mxPoint y="10" as="sourcePoint" />
            <mxPoint x="20" y="10" as="targetPoint" />
          </mxGeometry>
        </mxCell>
        <mxCell id="R5z1-6jqIsE6iVicjENk-21" style="vsdxID=9;edgeStyle=none;startArrow=none;endArrow=classic;startSize=5;endSize=5;strokeColor=#000000;spacingTop=0;spacingBottom=0;spacingLeft=0;spacingRight=0;verticalAlign=middle;html=1;labelBackgroundColor=#ffffff;rounded=0;exitX=1;exitY=0.25;exitDx=0;exitDy=0;exitPerimeter=0;" parent="1" source="R5z1-6jqIsE6iVicjENk-2" edge="1">
          <mxGeometry relative="1" as="geometry">
            <mxPoint as="offset" />
            <Array as="points" />
            <mxPoint x="480" y="50" as="sourcePoint" />
            <mxPoint x="530" y="50" as="targetPoint" />
          </mxGeometry>
        </mxCell>
        <mxCell id="R5z1-6jqIsE6iVicjENk-44" value="" style="endArrow=classic;html=1;rounded=0;" parent="1" edge="1">
          <mxGeometry width="50" height="50" relative="1" as="geometry">
            <mxPoint x="650" y="50" as="sourcePoint" />
            <mxPoint x="690" y="50" as="targetPoint" />
          </mxGeometry>
        </mxCell>
        <mxCell id="R5z1-6jqIsE6iVicjENk-45" value="" style="endArrow=classic;html=1;rounded=0;" parent="1" edge="1">
          <mxGeometry width="50" height="50" relative="1" as="geometry">
            <mxPoint x="650" y="110" as="sourcePoint" />
            <mxPoint x="690" y="110" as="targetPoint" />
          </mxGeometry>
        </mxCell>
        <mxCell id="R5z1-6jqIsE6iVicjENk-46" value="In_Data" style="text;html=1;align=right;verticalAlign=middle;whiteSpace=wrap;rounded=0;" parent="1" vertex="1">
          <mxGeometry x="340" y="100" width="60" height="20" as="geometry" />
        </mxCell>
        <mxCell id="R5z1-6jqIsE6iVicjENk-93" value="" style="endArrow=classic;html=1;rounded=0;entryX=1;entryY=0.5;entryDx=0;entryDy=0;" parent="1" edge="1">
          <mxGeometry width="50" height="50" relative="1" as="geometry">
            <mxPoint x="600" y="890" as="sourcePoint" />
            <mxPoint x="580" y="890" as="targetPoint" />
          </mxGeometry>
        </mxCell>
        <mxCell id="R5z1-6jqIsE6iVicjENk-101" style="vsdxID=5;fillColor=none;gradientColor=none;strokeColor=none;labelBackgroundColor=none;rounded=0;html=1;whiteSpace=wrap;flipH=1;" parent="1" vertex="1">
          <mxGeometry x="230" y="870" width="50" height="40" as="geometry" />
        </mxCell>
        <mxCell id="R5z1-6jqIsE6iVicjENk-102" style="vsdxID=6;fillColor=#FFFFFF;gradientColor=none;shape=stencil(nZBLDoAgDERP0z3SIyjew0SURgSD+Lu9kMZoXLhwN9O+tukAlrNpJg1SzDH4QW/URgNYgZTkjA4UkwJUgGXng+6DX1zLfmoymdXo17xh5zmRJ6Q42BWCfc2oJfdAr+Yv+AP9Cb7OJ3H/2JG1HNGz/84klThPVCc=);strokeColor=#000000;labelBackgroundColor=none;rounded=0;html=1;whiteSpace=wrap;" parent="R5z1-6jqIsE6iVicjENk-101" vertex="1">
          <mxGeometry width="30" height="40" as="geometry" />
        </mxCell>
        <mxCell id="R5z1-6jqIsE6iVicjENk-103" value="&lt;font style=&quot;font-size:14px;font-family:Calibri;color:#000000;direction:ltr;letter-spacing:0px;line-height:120%;opacity:1&quot;&gt;D&lt;br/&gt;&lt;/font&gt;" style="verticalAlign=middle;align=center;vsdxID=10;fillColor=none;gradientColor=none;shape=stencil(nZBLDoAgDERP0z3SIyjew0SURgSD+Lu9kMZoXLhwN9O+tukAlrNpJg1SzDH4QW/URgNYgZTkjA4UkwJUgGXng+6DX1zLfmoymdXo17xh5zmRJ6Q42BWCfc2oJfdAr+Yv+AP9Cb7OJ3H/2JG1HNGz/84klThPVCc=);strokeColor=none;spacingTop=-3;spacingBottom=-3;spacingLeft=-3;spacingRight=-3;labelBackgroundColor=none;rounded=0;html=1;whiteSpace=wrap;" parent="R5z1-6jqIsE6iVicjENk-101" vertex="1">
          <mxGeometry x="18" y="5" width="10" height="10" as="geometry" />
        </mxCell>
        <mxCell id="R5z1-6jqIsE6iVicjENk-104" value="&lt;font style=&quot;font-size:14px;font-family:Calibri;color:#000000;direction:ltr;letter-spacing:0px;line-height:120%;opacity:1&quot;&gt;Q&lt;br/&gt;&lt;/font&gt;" style="verticalAlign=middle;align=center;vsdxID=11;fillColor=none;gradientColor=none;shape=stencil(nZBLDoAgDERP0z3SIyjew0SURgSD+Lu9kMZoXLhwN9O+tukAlrNpJg1SzDH4QW/URgNYgZTkjA4UkwJUgGXng+6DX1zLfmoymdXo17xh5zmRJ6Q42BWCfc2oJfdAr+Yv+AP9Cb7OJ3H/2JG1HNGz/84klThPVCc=);strokeColor=none;spacingTop=-3;spacingBottom=-3;spacingLeft=-3;spacingRight=-3;labelBackgroundColor=none;rounded=0;html=1;whiteSpace=wrap;" parent="R5z1-6jqIsE6iVicjENk-101" vertex="1">
          <mxGeometry x="2" y="5" width="10" height="10" as="geometry" />
        </mxCell>
        <mxCell id="R5z1-6jqIsE6iVicjENk-105" style="vsdxID=7;edgeStyle=none;startArrow=none;endArrow=none;startSize=5;endSize=5;strokeColor=#000000;spacingTop=0;spacingBottom=0;spacingLeft=0;spacingRight=0;verticalAlign=middle;html=1;labelBackgroundColor=#ffffff;rounded=0;" parent="R5z1-6jqIsE6iVicjENk-101" edge="1">
          <mxGeometry relative="1" as="geometry">
            <Array as="points" />
            <mxPoint x="18" y="40" as="sourcePoint" />
            <mxPoint x="14" y="32" as="targetPoint" />
          </mxGeometry>
        </mxCell>
        <mxCell id="R5z1-6jqIsE6iVicjENk-106" style="vsdxID=8;edgeStyle=none;startArrow=none;endArrow=none;startSize=5;endSize=5;strokeColor=#000000;spacingTop=0;spacingBottom=0;spacingLeft=0;spacingRight=0;verticalAlign=middle;html=1;labelBackgroundColor=#ffffff;rounded=0;" parent="R5z1-6jqIsE6iVicjENk-101" edge="1">
          <mxGeometry relative="1" as="geometry">
            <Array as="points" />
            <mxPoint x="14" y="32" as="sourcePoint" />
            <mxPoint x="10" y="40" as="targetPoint" />
          </mxGeometry>
        </mxCell>
        <mxCell id="R5z1-6jqIsE6iVicjENk-107" style="vsdxID=9;edgeStyle=none;startArrow=none;endArrow=classic;startSize=5;endSize=5;strokeColor=#000000;spacingTop=0;spacingBottom=0;spacingLeft=0;spacingRight=0;verticalAlign=middle;html=1;labelBackgroundColor=#ffffff;rounded=0;" parent="R5z1-6jqIsE6iVicjENk-101" edge="1">
          <mxGeometry relative="1" as="geometry">
            <mxPoint as="offset" />
            <Array as="points" />
            <mxPoint x="50" y="10" as="sourcePoint" />
            <mxPoint x="30" y="10" as="targetPoint" />
          </mxGeometry>
        </mxCell>
        <mxCell id="R5z1-6jqIsE6iVicjENk-108" value="" style="endArrow=classic;html=1;rounded=0;" parent="1" edge="1">
          <mxGeometry width="50" height="50" relative="1" as="geometry">
            <mxPoint x="230" y="879.76" as="sourcePoint" />
            <mxPoint x="200" y="879.76" as="targetPoint" />
          </mxGeometry>
        </mxCell>
        <mxCell id="R5z1-6jqIsE6iVicjENk-128" value="Out_Valid" style="text;html=1;align=left;verticalAlign=middle;whiteSpace=wrap;rounded=0;" parent="1" vertex="1">
          <mxGeometry x="600" y="770" width="60" height="20" as="geometry" />
        </mxCell>
        <mxCell id="R5z1-6jqIsE6iVicjENk-129" value="Out_Data" style="text;html=1;align=left;verticalAlign=middle;whiteSpace=wrap;rounded=0;" parent="1" vertex="1">
          <mxGeometry x="600" y="670" width="60" height="20" as="geometry" />
        </mxCell>
        <mxCell id="R5z1-6jqIsE6iVicjENk-130" value="Out_Ready" style="text;html=1;align=left;verticalAlign=middle;whiteSpace=wrap;rounded=0;" parent="1" vertex="1">
          <mxGeometry x="600" y="880" width="60" height="20" as="geometry" />
        </mxCell>
        <mxCell id="R5z1-6jqIsE6iVicjENk-132" value="In_Data" style="text;html=1;align=right;verticalAlign=middle;whiteSpace=wrap;rounded=0;" parent="1" vertex="1">
          <mxGeometry x="140" y="660" width="60" height="20" as="geometry" />
        </mxCell>
        <mxCell id="R5z1-6jqIsE6iVicjENk-134" value="In_Ready" style="text;html=1;align=right;verticalAlign=middle;whiteSpace=wrap;rounded=0;" parent="1" vertex="1">
          <mxGeometry x="140" y="870" width="60" height="20" as="geometry" />
        </mxCell>
        <mxCell id="R5z1-6jqIsE6iVicjENk-144" value="Ready Logic" style="rounded=1;whiteSpace=wrap;html=1;fillColor=#f5f5f5;fontColor=#333333;strokeColor=#666666;" parent="1" vertex="1">
          <mxGeometry x="280" y="860" width="300" height="60" as="geometry" />
        </mxCell>
        <mxCell id="R5z1-6jqIsE6iVicjENk-145" style="vsdxID=5;fillColor=none;gradientColor=none;strokeColor=none;labelBackgroundColor=none;rounded=0;html=1;whiteSpace=wrap;" parent="1" vertex="1">
          <mxGeometry x="350.65" y="780" width="50" height="50" as="geometry" />
        </mxCell>
        <mxCell id="R5z1-6jqIsE6iVicjENk-146" style="vsdxID=6;fillColor=#f8cecc;shape=stencil(nZBLDoAgDERP0z3SIyjew0SURgSD+Lu9kMZoXLhwN9O+tukAlrNpJg1SzDH4QW/URgNYgZTkjA4UkwJUgGXng+6DX1zLfmoymdXo17xh5zmRJ6Q42BWCfc2oJfdAr+Yv+AP9Cb7OJ3H/2JG1HNGz/84klThPVCc=);strokeColor=#b85450;labelBackgroundColor=none;rounded=0;html=1;whiteSpace=wrap;" parent="R5z1-6jqIsE6iVicjENk-145" vertex="1">
          <mxGeometry x="20" width="30" height="50" as="geometry" />
        </mxCell>
        <mxCell id="R5z1-6jqIsE6iVicjENk-147" value="&lt;font style=&quot;font-size:14px;font-family:Calibri;color:#000000;direction:ltr;letter-spacing:0px;line-height:120%;opacity:1&quot;&gt;D&lt;br/&gt;&lt;/font&gt;" style="verticalAlign=middle;align=center;vsdxID=10;fillColor=none;gradientColor=none;shape=stencil(nZBLDoAgDERP0z3SIyjew0SURgSD+Lu9kMZoXLhwN9O+tukAlrNpJg1SzDH4QW/URgNYgZTkjA4UkwJUgGXng+6DX1zLfmoymdXo17xh5zmRJ6Q42BWCfc2oJfdAr+Yv+AP9Cb7OJ3H/2JG1HNGz/84klThPVCc=);strokeColor=none;spacingTop=-3;spacingBottom=-3;spacingLeft=-3;spacingRight=-3;labelBackgroundColor=none;rounded=0;html=1;whiteSpace=wrap;" parent="R5z1-6jqIsE6iVicjENk-145" vertex="1">
          <mxGeometry x="22" y="5" width="10" height="10" as="geometry" />
        </mxCell>
        <mxCell id="R5z1-6jqIsE6iVicjENk-148" value="&lt;font style=&quot;font-size:14px;font-family:Calibri;color:#000000;direction:ltr;letter-spacing:0px;line-height:120%;opacity:1&quot;&gt;Q&lt;br/&gt;&lt;/font&gt;" style="verticalAlign=middle;align=center;vsdxID=11;fillColor=none;gradientColor=none;shape=stencil(nZBLDoAgDERP0z3SIyjew0SURgSD+Lu9kMZoXLhwN9O+tukAlrNpJg1SzDH4QW/URgNYgZTkjA4UkwJUgGXng+6DX1zLfmoymdXo17xh5zmRJ6Q42BWCfc2oJfdAr+Yv+AP9Cb7OJ3H/2JG1HNGz/84klThPVCc=);strokeColor=none;spacingTop=-3;spacingBottom=-3;spacingLeft=-3;spacingRight=-3;labelBackgroundColor=none;rounded=0;html=1;whiteSpace=wrap;" parent="R5z1-6jqIsE6iVicjENk-145" vertex="1">
          <mxGeometry x="38" y="5" width="10" height="10" as="geometry" />
        </mxCell>
        <mxCell id="R5z1-6jqIsE6iVicjENk-149" value="&lt;font style=&quot;font-size:14px;font-family:Calibri;color:#000000;direction:ltr;letter-spacing:0px;line-height:120%;opacity:1&quot;&gt;E&lt;br/&gt;&lt;/font&gt;" style="verticalAlign=middle;align=center;vsdxID=12;fillColor=none;gradientColor=none;shape=stencil(nZBLDoAgDERP0z3SIyjew0SURgSD+Lu9kMZoXLhwN9O+tukAlrNpJg1SzDH4QW/URgNYgZTkjA4UkwJUgGXng+6DX1zLfmoymdXo17xh5zmRJ6Q42BWCfc2oJfdAr+Yv+AP9Cb7OJ3H/2JG1HNGz/84klThPVCc=);strokeColor=none;spacingTop=-3;spacingBottom=-3;spacingLeft=-3;spacingRight=-3;labelBackgroundColor=none;rounded=0;html=1;whiteSpace=wrap;" parent="R5z1-6jqIsE6iVicjENk-145" vertex="1">
          <mxGeometry x="22" y="25" width="10" height="10" as="geometry" />
        </mxCell>
        <mxCell id="R5z1-6jqIsE6iVicjENk-150" style="vsdxID=7;edgeStyle=none;startArrow=none;endArrow=none;startSize=5;endSize=5;strokeColor=#000000;spacingTop=0;spacingBottom=0;spacingLeft=0;spacingRight=0;verticalAlign=middle;html=1;labelBackgroundColor=#ffffff;rounded=0;" parent="R5z1-6jqIsE6iVicjENk-145" edge="1">
          <mxGeometry relative="1" as="geometry">
            <Array as="points" />
            <mxPoint x="32" y="50" as="sourcePoint" />
            <mxPoint x="36" y="42" as="targetPoint" />
          </mxGeometry>
        </mxCell>
        <mxCell id="R5z1-6jqIsE6iVicjENk-151" style="vsdxID=8;edgeStyle=none;startArrow=none;endArrow=none;startSize=5;endSize=5;strokeColor=#000000;spacingTop=0;spacingBottom=0;spacingLeft=0;spacingRight=0;verticalAlign=middle;html=1;labelBackgroundColor=#ffffff;rounded=0;" parent="R5z1-6jqIsE6iVicjENk-145" edge="1">
          <mxGeometry relative="1" as="geometry">
            <Array as="points" />
            <mxPoint x="36" y="42" as="sourcePoint" />
            <mxPoint x="40" y="50" as="targetPoint" />
          </mxGeometry>
        </mxCell>
        <mxCell id="R5z1-6jqIsE6iVicjENk-152" style="vsdxID=9;edgeStyle=none;startArrow=none;endArrow=classic;startSize=5;endSize=5;strokeColor=#000000;spacingTop=0;spacingBottom=0;spacingLeft=0;spacingRight=0;verticalAlign=middle;html=1;labelBackgroundColor=#ffffff;rounded=0;" parent="R5z1-6jqIsE6iVicjENk-145" edge="1">
          <mxGeometry relative="1" as="geometry">
            <mxPoint as="offset" />
            <Array as="points" />
            <mxPoint y="10" as="sourcePoint" />
            <mxPoint x="20" y="10" as="targetPoint" />
          </mxGeometry>
        </mxCell>
        <mxCell id="R5z1-6jqIsE6iVicjENk-153" style="vsdxID=13;edgeStyle=none;startArrow=none;endArrow=classic;startSize=5;endSize=5;strokeColor=#000000;spacingTop=0;spacingBottom=0;spacingLeft=0;spacingRight=0;verticalAlign=middle;html=1;labelBackgroundColor=#ffffff;rounded=0;" parent="R5z1-6jqIsE6iVicjENk-145" edge="1">
          <mxGeometry relative="1" as="geometry">
            <mxPoint as="offset" />
            <Array as="points" />
            <mxPoint y="30" as="sourcePoint" />
            <mxPoint x="20" y="30" as="targetPoint" />
          </mxGeometry>
        </mxCell>
        <mxCell id="R5z1-6jqIsE6iVicjENk-154" style="vsdxID=5;fillColor=none;gradientColor=none;strokeColor=none;labelBackgroundColor=none;rounded=0;html=1;whiteSpace=wrap;" parent="1" vertex="1">
          <mxGeometry x="490" y="770" width="50" height="50" as="geometry" />
        </mxCell>
        <mxCell id="R5z1-6jqIsE6iVicjENk-155" style="vsdxID=6;fillColor=#dae8fc;shape=stencil(nZBLDoAgDERP0z3SIyjew0SURgSD+Lu9kMZoXLhwN9O+tukAlrNpJg1SzDH4QW/URgNYgZTkjA4UkwJUgGXng+6DX1zLfmoymdXo17xh5zmRJ6Q42BWCfc2oJfdAr+Yv+AP9Cb7OJ3H/2JG1HNGz/84klThPVCc=);strokeColor=#6c8ebf;labelBackgroundColor=none;rounded=0;html=1;whiteSpace=wrap;" parent="R5z1-6jqIsE6iVicjENk-154" vertex="1">
          <mxGeometry x="20" width="30" height="50" as="geometry" />
        </mxCell>
        <mxCell id="R5z1-6jqIsE6iVicjENk-156" value="&lt;font style=&quot;font-size:14px;font-family:Calibri;color:#000000;direction:ltr;letter-spacing:0px;line-height:120%;opacity:1&quot;&gt;D&lt;br/&gt;&lt;/font&gt;" style="verticalAlign=middle;align=center;vsdxID=10;fillColor=none;gradientColor=none;shape=stencil(nZBLDoAgDERP0z3SIyjew0SURgSD+Lu9kMZoXLhwN9O+tukAlrNpJg1SzDH4QW/URgNYgZTkjA4UkwJUgGXng+6DX1zLfmoymdXo17xh5zmRJ6Q42BWCfc2oJfdAr+Yv+AP9Cb7OJ3H/2JG1HNGz/84klThPVCc=);strokeColor=none;spacingTop=-3;spacingBottom=-3;spacingLeft=-3;spacingRight=-3;labelBackgroundColor=none;rounded=0;html=1;whiteSpace=wrap;" parent="R5z1-6jqIsE6iVicjENk-154" vertex="1">
          <mxGeometry x="22" y="5" width="10" height="10" as="geometry" />
        </mxCell>
        <mxCell id="R5z1-6jqIsE6iVicjENk-157" value="&lt;font style=&quot;font-size:14px;font-family:Calibri;color:#000000;direction:ltr;letter-spacing:0px;line-height:120%;opacity:1&quot;&gt;Q&lt;br/&gt;&lt;/font&gt;" style="verticalAlign=middle;align=center;vsdxID=11;fillColor=none;gradientColor=none;shape=stencil(nZBLDoAgDERP0z3SIyjew0SURgSD+Lu9kMZoXLhwN9O+tukAlrNpJg1SzDH4QW/URgNYgZTkjA4UkwJUgGXng+6DX1zLfmoymdXo17xh5zmRJ6Q42BWCfc2oJfdAr+Yv+AP9Cb7OJ3H/2JG1HNGz/84klThPVCc=);strokeColor=none;spacingTop=-3;spacingBottom=-3;spacingLeft=-3;spacingRight=-3;labelBackgroundColor=none;rounded=0;html=1;whiteSpace=wrap;" parent="R5z1-6jqIsE6iVicjENk-154" vertex="1">
          <mxGeometry x="38" y="5" width="10" height="10" as="geometry" />
        </mxCell>
        <mxCell id="R5z1-6jqIsE6iVicjENk-158" value="&lt;font style=&quot;font-size:14px;font-family:Calibri;color:#000000;direction:ltr;letter-spacing:0px;line-height:120%;opacity:1&quot;&gt;E&lt;br/&gt;&lt;/font&gt;" style="verticalAlign=middle;align=center;vsdxID=12;fillColor=none;gradientColor=none;shape=stencil(nZBLDoAgDERP0z3SIyjew0SURgSD+Lu9kMZoXLhwN9O+tukAlrNpJg1SzDH4QW/URgNYgZTkjA4UkwJUgGXng+6DX1zLfmoymdXo17xh5zmRJ6Q42BWCfc2oJfdAr+Yv+AP9Cb7OJ3H/2JG1HNGz/84klThPVCc=);strokeColor=none;spacingTop=-3;spacingBottom=-3;spacingLeft=-3;spacingRight=-3;labelBackgroundColor=none;rounded=0;html=1;whiteSpace=wrap;" parent="R5z1-6jqIsE6iVicjENk-154" vertex="1">
          <mxGeometry x="22" y="25" width="10" height="10" as="geometry" />
        </mxCell>
        <mxCell id="R5z1-6jqIsE6iVicjENk-159" style="vsdxID=7;edgeStyle=none;startArrow=none;endArrow=none;startSize=5;endSize=5;strokeColor=#000000;spacingTop=0;spacingBottom=0;spacingLeft=0;spacingRight=0;verticalAlign=middle;html=1;labelBackgroundColor=#ffffff;rounded=0;" parent="R5z1-6jqIsE6iVicjENk-154" edge="1">
          <mxGeometry relative="1" as="geometry">
            <Array as="points" />
            <mxPoint x="32" y="50" as="sourcePoint" />
            <mxPoint x="36" y="42" as="targetPoint" />
          </mxGeometry>
        </mxCell>
        <mxCell id="R5z1-6jqIsE6iVicjENk-160" style="vsdxID=8;edgeStyle=none;startArrow=none;endArrow=none;startSize=5;endSize=5;strokeColor=#000000;spacingTop=0;spacingBottom=0;spacingLeft=0;spacingRight=0;verticalAlign=middle;html=1;labelBackgroundColor=#ffffff;rounded=0;" parent="R5z1-6jqIsE6iVicjENk-154" edge="1">
          <mxGeometry relative="1" as="geometry">
            <Array as="points" />
            <mxPoint x="36" y="42" as="sourcePoint" />
            <mxPoint x="40" y="50" as="targetPoint" />
          </mxGeometry>
        </mxCell>
        <mxCell id="R5z1-6jqIsE6iVicjENk-161" style="vsdxID=9;edgeStyle=none;startArrow=none;endArrow=classic;startSize=5;endSize=5;strokeColor=#000000;spacingTop=0;spacingBottom=0;spacingLeft=0;spacingRight=0;verticalAlign=middle;html=1;labelBackgroundColor=#ffffff;rounded=0;" parent="R5z1-6jqIsE6iVicjENk-154" edge="1">
          <mxGeometry relative="1" as="geometry">
            <mxPoint as="offset" />
            <Array as="points" />
            <mxPoint y="10" as="sourcePoint" />
            <mxPoint x="20" y="10" as="targetPoint" />
          </mxGeometry>
        </mxCell>
        <mxCell id="R5z1-6jqIsE6iVicjENk-162" style="vsdxID=13;edgeStyle=none;startArrow=none;endArrow=classic;startSize=5;endSize=5;strokeColor=#000000;spacingTop=0;spacingBottom=0;spacingLeft=0;spacingRight=0;verticalAlign=middle;html=1;labelBackgroundColor=#ffffff;rounded=0;" parent="R5z1-6jqIsE6iVicjENk-154" edge="1">
          <mxGeometry relative="1" as="geometry">
            <mxPoint as="offset" />
            <Array as="points" />
            <mxPoint y="30" as="sourcePoint" />
            <mxPoint x="20" y="30" as="targetPoint" />
          </mxGeometry>
        </mxCell>
        <mxCell id="R5z1-6jqIsE6iVicjENk-163" style="vsdxID=5;fillColor=none;gradientColor=none;strokeColor=none;labelBackgroundColor=none;rounded=0;html=1;whiteSpace=wrap;" parent="1" vertex="1">
          <mxGeometry x="420" y="760" width="40" height="40" as="geometry" />
        </mxCell>
        <mxCell id="R5z1-6jqIsE6iVicjENk-164" style="vsdxID=8;fillColor=#ffffff;gradientColor=none;shape=stencil(UzV2Ls5ILEhVNTIoLinKz04tz0wpyVA1dlE1MsrMy0gtyiwBslSNXVWNndPyi1LTi/JL81Ig/IJEkEoQKze/DGRCBUSfoYEBSI+RQSWEb24K5rpB1OZk5uFRa4RHLapKA2IVwqwgyn5UtwIZCE+mZebkQMIIWR49UIBCkAA1dgUA);strokeColor=#000000;labelBackgroundColor=#ffffff;rounded=0;html=1;whiteSpace=wrap;" parent="R5z1-6jqIsE6iVicjENk-163" vertex="1">
          <mxGeometry x="20" width="20" height="40" as="geometry" />
        </mxCell>
        <mxCell id="R5z1-6jqIsE6iVicjENk-165" value="&lt;font style=&quot;font-size:11px;font-family:Calibri;color:#000000;direction:ltr;letter-spacing:0px;line-height:120%;opacity:1&quot;&gt;0&lt;br/&gt;&lt;/font&gt;" style="verticalAlign=middle;align=center;vsdxID=9;fillColor=none;gradientColor=none;shape=stencil(nZBLDoAgDERP0z3SIyjew0SURgSD+Lu9kMZoXLhwN9O+tukAlrNpJg1SzDH4QW/URgNYgZTkjA4UkwJUgGXng+6DX1zLfmoymdXo17xh5zmRJ6Q42BWCfc2oJfdAr+Yv+AP9Cb7OJ3H/2JG1HNGz/84klThPVCc=);strokeColor=none;spacingTop=-3;spacingBottom=-3;spacingLeft=-3;spacingRight=-3;labelBackgroundColor=none;rounded=0;html=1;whiteSpace=wrap;" parent="R5z1-6jqIsE6iVicjENk-163" vertex="1">
          <mxGeometry x="20" y="5" width="10" height="10" as="geometry" />
        </mxCell>
        <mxCell id="R5z1-6jqIsE6iVicjENk-166" value="&lt;font style=&quot;font-size:11px;font-family:Calibri;color:#000000;direction:ltr;letter-spacing:0px;line-height:120%;opacity:1&quot;&gt;1&lt;br/&gt;&lt;/font&gt;" style="verticalAlign=middle;align=center;vsdxID=10;fillColor=none;gradientColor=none;shape=stencil(nZBLDoAgDERP0z3SIyjew0SURgSD+Lu9kMZoXLhwN9O+tukAlrNpJg1SzDH4QW/URgNYgZTkjA4UkwJUgGXng+6DX1zLfmoymdXo17xh5zmRJ6Q42BWCfc2oJfdAr+Yv+AP9Cb7OJ3H/2JG1HNGz/84klThPVCc=);strokeColor=none;spacingTop=-3;spacingBottom=-3;spacingLeft=-3;spacingRight=-3;labelBackgroundColor=none;rounded=0;html=1;whiteSpace=wrap;" parent="R5z1-6jqIsE6iVicjENk-163" vertex="1">
          <mxGeometry x="20" y="25" width="10" height="10" as="geometry" />
        </mxCell>
        <mxCell id="R5z1-6jqIsE6iVicjENk-167" style="vsdxID=6;edgeStyle=none;startArrow=none;endArrow=classic;startSize=5;endSize=5;strokeColor=#000000;spacingTop=0;spacingBottom=0;spacingLeft=0;spacingRight=0;verticalAlign=middle;html=1;labelBackgroundColor=#ffffff;rounded=0;" parent="R5z1-6jqIsE6iVicjENk-163" edge="1">
          <mxGeometry relative="1" as="geometry">
            <mxPoint as="offset" />
            <Array as="points" />
            <mxPoint y="10" as="sourcePoint" />
            <mxPoint x="20" y="10" as="targetPoint" />
          </mxGeometry>
        </mxCell>
        <mxCell id="R5z1-6jqIsE6iVicjENk-168" style="vsdxID=7;edgeStyle=none;startArrow=none;endArrow=classic;startSize=5;endSize=5;strokeColor=#000000;spacingTop=0;spacingBottom=0;spacingLeft=0;spacingRight=0;verticalAlign=middle;html=1;labelBackgroundColor=#ffffff;rounded=0;" parent="R5z1-6jqIsE6iVicjENk-163" edge="1">
          <mxGeometry relative="1" as="geometry">
            <mxPoint as="offset" />
            <Array as="points" />
            <mxPoint y="30" as="sourcePoint" />
            <mxPoint x="20" y="30" as="targetPoint" />
          </mxGeometry>
        </mxCell>
        <mxCell id="R5z1-6jqIsE6iVicjENk-169" value="" style="endArrow=none;html=1;rounded=0;" parent="1" edge="1">
          <mxGeometry width="50" height="50" relative="1" as="geometry">
            <mxPoint x="460" y="779.92" as="sourcePoint" />
            <mxPoint x="480" y="780" as="targetPoint" />
            <Array as="points">
              <mxPoint x="490" y="780" />
            </Array>
          </mxGeometry>
        </mxCell>
        <mxCell id="R5z1-6jqIsE6iVicjENk-170" value="" style="endArrow=none;html=1;rounded=0;" parent="1" source="R5z1-6jqIsE6iVicjENk-133" edge="1">
          <mxGeometry width="50" height="50" relative="1" as="geometry">
            <mxPoint x="200" y="770" as="sourcePoint" />
            <mxPoint x="420" y="770" as="targetPoint" />
          </mxGeometry>
        </mxCell>
        <mxCell id="R5z1-6jqIsE6iVicjENk-171" value="" style="endArrow=none;html=1;rounded=0;startArrow=oval;startFill=1;entryX=0.007;entryY=0.207;entryDx=0;entryDy=0;entryPerimeter=0;" parent="1" target="R5z1-6jqIsE6iVicjENk-145" edge="1">
          <mxGeometry width="50" height="50" relative="1" as="geometry">
            <mxPoint x="350.65" y="770" as="sourcePoint" />
            <mxPoint x="400.65" y="720" as="targetPoint" />
          </mxGeometry>
        </mxCell>
        <mxCell id="R5z1-6jqIsE6iVicjENk-172" style="vsdxID=5;fillColor=none;gradientColor=none;strokeColor=none;labelBackgroundColor=none;rounded=0;html=1;whiteSpace=wrap;" parent="1" vertex="1">
          <mxGeometry x="350.65" y="680" width="50" height="50" as="geometry" />
        </mxCell>
        <mxCell id="R5z1-6jqIsE6iVicjENk-173" style="vsdxID=6;fillColor=#f8cecc;shape=stencil(nZBLDoAgDERP0z3SIyjew0SURgSD+Lu9kMZoXLhwN9O+tukAlrNpJg1SzDH4QW/URgNYgZTkjA4UkwJUgGXng+6DX1zLfmoymdXo17xh5zmRJ6Q42BWCfc2oJfdAr+Yv+AP9Cb7OJ3H/2JG1HNGz/84klThPVCc=);strokeColor=#b85450;labelBackgroundColor=none;rounded=0;html=1;whiteSpace=wrap;" parent="R5z1-6jqIsE6iVicjENk-172" vertex="1">
          <mxGeometry x="20" width="30" height="50" as="geometry" />
        </mxCell>
        <mxCell id="R5z1-6jqIsE6iVicjENk-174" value="&lt;font style=&quot;font-size:14px;font-family:Calibri;color:#000000;direction:ltr;letter-spacing:0px;line-height:120%;opacity:1&quot;&gt;D&lt;br/&gt;&lt;/font&gt;" style="verticalAlign=middle;align=center;vsdxID=10;fillColor=none;gradientColor=none;shape=stencil(nZBLDoAgDERP0z3SIyjew0SURgSD+Lu9kMZoXLhwN9O+tukAlrNpJg1SzDH4QW/URgNYgZTkjA4UkwJUgGXng+6DX1zLfmoymdXo17xh5zmRJ6Q42BWCfc2oJfdAr+Yv+AP9Cb7OJ3H/2JG1HNGz/84klThPVCc=);strokeColor=none;spacingTop=-3;spacingBottom=-3;spacingLeft=-3;spacingRight=-3;labelBackgroundColor=none;rounded=0;html=1;whiteSpace=wrap;" parent="R5z1-6jqIsE6iVicjENk-172" vertex="1">
          <mxGeometry x="22" y="5" width="10" height="10" as="geometry" />
        </mxCell>
        <mxCell id="R5z1-6jqIsE6iVicjENk-175" value="&lt;font style=&quot;font-size:14px;font-family:Calibri;color:#000000;direction:ltr;letter-spacing:0px;line-height:120%;opacity:1&quot;&gt;Q&lt;br/&gt;&lt;/font&gt;" style="verticalAlign=middle;align=center;vsdxID=11;fillColor=none;gradientColor=none;shape=stencil(nZBLDoAgDERP0z3SIyjew0SURgSD+Lu9kMZoXLhwN9O+tukAlrNpJg1SzDH4QW/URgNYgZTkjA4UkwJUgGXng+6DX1zLfmoymdXo17xh5zmRJ6Q42BWCfc2oJfdAr+Yv+AP9Cb7OJ3H/2JG1HNGz/84klThPVCc=);strokeColor=none;spacingTop=-3;spacingBottom=-3;spacingLeft=-3;spacingRight=-3;labelBackgroundColor=none;rounded=0;html=1;whiteSpace=wrap;" parent="R5z1-6jqIsE6iVicjENk-172" vertex="1">
          <mxGeometry x="38" y="5" width="10" height="10" as="geometry" />
        </mxCell>
        <mxCell id="R5z1-6jqIsE6iVicjENk-176" value="&lt;font style=&quot;font-size:14px;font-family:Calibri;color:#000000;direction:ltr;letter-spacing:0px;line-height:120%;opacity:1&quot;&gt;E&lt;br/&gt;&lt;/font&gt;" style="verticalAlign=middle;align=center;vsdxID=12;fillColor=none;gradientColor=none;shape=stencil(nZBLDoAgDERP0z3SIyjew0SURgSD+Lu9kMZoXLhwN9O+tukAlrNpJg1SzDH4QW/URgNYgZTkjA4UkwJUgGXng+6DX1zLfmoymdXo17xh5zmRJ6Q42BWCfc2oJfdAr+Yv+AP9Cb7OJ3H/2JG1HNGz/84klThPVCc=);strokeColor=none;spacingTop=-3;spacingBottom=-3;spacingLeft=-3;spacingRight=-3;labelBackgroundColor=none;rounded=0;html=1;whiteSpace=wrap;" parent="R5z1-6jqIsE6iVicjENk-172" vertex="1">
          <mxGeometry x="22" y="25" width="10" height="10" as="geometry" />
        </mxCell>
        <mxCell id="R5z1-6jqIsE6iVicjENk-177" style="vsdxID=7;edgeStyle=none;startArrow=none;endArrow=none;startSize=5;endSize=5;strokeColor=#000000;spacingTop=0;spacingBottom=0;spacingLeft=0;spacingRight=0;verticalAlign=middle;html=1;labelBackgroundColor=#ffffff;rounded=0;" parent="R5z1-6jqIsE6iVicjENk-172" edge="1">
          <mxGeometry relative="1" as="geometry">
            <Array as="points" />
            <mxPoint x="32" y="50" as="sourcePoint" />
            <mxPoint x="36" y="42" as="targetPoint" />
          </mxGeometry>
        </mxCell>
        <mxCell id="R5z1-6jqIsE6iVicjENk-178" style="vsdxID=8;edgeStyle=none;startArrow=none;endArrow=none;startSize=5;endSize=5;strokeColor=#000000;spacingTop=0;spacingBottom=0;spacingLeft=0;spacingRight=0;verticalAlign=middle;html=1;labelBackgroundColor=#ffffff;rounded=0;" parent="R5z1-6jqIsE6iVicjENk-172" edge="1">
          <mxGeometry relative="1" as="geometry">
            <Array as="points" />
            <mxPoint x="36" y="42" as="sourcePoint" />
            <mxPoint x="40" y="50" as="targetPoint" />
          </mxGeometry>
        </mxCell>
        <mxCell id="R5z1-6jqIsE6iVicjENk-179" style="vsdxID=9;edgeStyle=none;startArrow=none;endArrow=classic;startSize=5;endSize=5;strokeColor=#000000;spacingTop=0;spacingBottom=0;spacingLeft=0;spacingRight=0;verticalAlign=middle;html=1;labelBackgroundColor=#ffffff;rounded=0;" parent="R5z1-6jqIsE6iVicjENk-172" edge="1">
          <mxGeometry relative="1" as="geometry">
            <mxPoint as="offset" />
            <Array as="points" />
            <mxPoint y="10" as="sourcePoint" />
            <mxPoint x="20" y="10" as="targetPoint" />
          </mxGeometry>
        </mxCell>
        <mxCell id="R5z1-6jqIsE6iVicjENk-180" style="vsdxID=13;edgeStyle=none;startArrow=none;endArrow=classic;startSize=5;endSize=5;strokeColor=#000000;spacingTop=0;spacingBottom=0;spacingLeft=0;spacingRight=0;verticalAlign=middle;html=1;labelBackgroundColor=#ffffff;rounded=0;" parent="R5z1-6jqIsE6iVicjENk-172" edge="1">
          <mxGeometry relative="1" as="geometry">
            <mxPoint as="offset" />
            <Array as="points" />
            <mxPoint y="30" as="sourcePoint" />
            <mxPoint x="20" y="30" as="targetPoint" />
          </mxGeometry>
        </mxCell>
        <mxCell id="R5z1-6jqIsE6iVicjENk-181" style="vsdxID=5;fillColor=none;gradientColor=none;strokeColor=none;labelBackgroundColor=none;rounded=0;html=1;whiteSpace=wrap;" parent="1" vertex="1">
          <mxGeometry x="490" y="670" width="50" height="50" as="geometry" />
        </mxCell>
        <mxCell id="R5z1-6jqIsE6iVicjENk-182" style="vsdxID=6;fillColor=#dae8fc;shape=stencil(nZBLDoAgDERP0z3SIyjew0SURgSD+Lu9kMZoXLhwN9O+tukAlrNpJg1SzDH4QW/URgNYgZTkjA4UkwJUgGXng+6DX1zLfmoymdXo17xh5zmRJ6Q42BWCfc2oJfdAr+Yv+AP9Cb7OJ3H/2JG1HNGz/84klThPVCc=);strokeColor=#6c8ebf;labelBackgroundColor=none;rounded=0;html=1;whiteSpace=wrap;" parent="R5z1-6jqIsE6iVicjENk-181" vertex="1">
          <mxGeometry x="20" width="30" height="50" as="geometry" />
        </mxCell>
        <mxCell id="R5z1-6jqIsE6iVicjENk-183" value="&lt;font style=&quot;font-size:14px;font-family:Calibri;color:#000000;direction:ltr;letter-spacing:0px;line-height:120%;opacity:1&quot;&gt;D&lt;br/&gt;&lt;/font&gt;" style="verticalAlign=middle;align=center;vsdxID=10;fillColor=none;gradientColor=none;shape=stencil(nZBLDoAgDERP0z3SIyjew0SURgSD+Lu9kMZoXLhwN9O+tukAlrNpJg1SzDH4QW/URgNYgZTkjA4UkwJUgGXng+6DX1zLfmoymdXo17xh5zmRJ6Q42BWCfc2oJfdAr+Yv+AP9Cb7OJ3H/2JG1HNGz/84klThPVCc=);strokeColor=none;spacingTop=-3;spacingBottom=-3;spacingLeft=-3;spacingRight=-3;labelBackgroundColor=none;rounded=0;html=1;whiteSpace=wrap;" parent="R5z1-6jqIsE6iVicjENk-181" vertex="1">
          <mxGeometry x="22" y="5" width="10" height="10" as="geometry" />
        </mxCell>
        <mxCell id="R5z1-6jqIsE6iVicjENk-184" value="&lt;font style=&quot;font-size:14px;font-family:Calibri;color:#000000;direction:ltr;letter-spacing:0px;line-height:120%;opacity:1&quot;&gt;Q&lt;br/&gt;&lt;/font&gt;" style="verticalAlign=middle;align=center;vsdxID=11;fillColor=none;gradientColor=none;shape=stencil(nZBLDoAgDERP0z3SIyjew0SURgSD+Lu9kMZoXLhwN9O+tukAlrNpJg1SzDH4QW/URgNYgZTkjA4UkwJUgGXng+6DX1zLfmoymdXo17xh5zmRJ6Q42BWCfc2oJfdAr+Yv+AP9Cb7OJ3H/2JG1HNGz/84klThPVCc=);strokeColor=none;spacingTop=-3;spacingBottom=-3;spacingLeft=-3;spacingRight=-3;labelBackgroundColor=none;rounded=0;html=1;whiteSpace=wrap;" parent="R5z1-6jqIsE6iVicjENk-181" vertex="1">
          <mxGeometry x="38" y="5" width="10" height="10" as="geometry" />
        </mxCell>
        <mxCell id="R5z1-6jqIsE6iVicjENk-185" value="&lt;font style=&quot;font-size:14px;font-family:Calibri;color:#000000;direction:ltr;letter-spacing:0px;line-height:120%;opacity:1&quot;&gt;E&lt;br/&gt;&lt;/font&gt;" style="verticalAlign=middle;align=center;vsdxID=12;fillColor=none;gradientColor=none;shape=stencil(nZBLDoAgDERP0z3SIyjew0SURgSD+Lu9kMZoXLhwN9O+tukAlrNpJg1SzDH4QW/URgNYgZTkjA4UkwJUgGXng+6DX1zLfmoymdXo17xh5zmRJ6Q42BWCfc2oJfdAr+Yv+AP9Cb7OJ3H/2JG1HNGz/84klThPVCc=);strokeColor=none;spacingTop=-3;spacingBottom=-3;spacingLeft=-3;spacingRight=-3;labelBackgroundColor=none;rounded=0;html=1;whiteSpace=wrap;" parent="R5z1-6jqIsE6iVicjENk-181" vertex="1">
          <mxGeometry x="22" y="25" width="10" height="10" as="geometry" />
        </mxCell>
        <mxCell id="R5z1-6jqIsE6iVicjENk-186" style="vsdxID=7;edgeStyle=none;startArrow=none;endArrow=none;startSize=5;endSize=5;strokeColor=#000000;spacingTop=0;spacingBottom=0;spacingLeft=0;spacingRight=0;verticalAlign=middle;html=1;labelBackgroundColor=#ffffff;rounded=0;" parent="R5z1-6jqIsE6iVicjENk-181" edge="1">
          <mxGeometry relative="1" as="geometry">
            <Array as="points" />
            <mxPoint x="32" y="50" as="sourcePoint" />
            <mxPoint x="36" y="42" as="targetPoint" />
          </mxGeometry>
        </mxCell>
        <mxCell id="R5z1-6jqIsE6iVicjENk-187" style="vsdxID=8;edgeStyle=none;startArrow=none;endArrow=none;startSize=5;endSize=5;strokeColor=#000000;spacingTop=0;spacingBottom=0;spacingLeft=0;spacingRight=0;verticalAlign=middle;html=1;labelBackgroundColor=#ffffff;rounded=0;" parent="R5z1-6jqIsE6iVicjENk-181" edge="1">
          <mxGeometry relative="1" as="geometry">
            <Array as="points" />
            <mxPoint x="36" y="42" as="sourcePoint" />
            <mxPoint x="40" y="50" as="targetPoint" />
          </mxGeometry>
        </mxCell>
        <mxCell id="R5z1-6jqIsE6iVicjENk-188" style="vsdxID=9;edgeStyle=none;startArrow=none;endArrow=classic;startSize=5;endSize=5;strokeColor=#000000;spacingTop=0;spacingBottom=0;spacingLeft=0;spacingRight=0;verticalAlign=middle;html=1;labelBackgroundColor=#ffffff;rounded=0;" parent="R5z1-6jqIsE6iVicjENk-181" edge="1">
          <mxGeometry relative="1" as="geometry">
            <mxPoint as="offset" />
            <Array as="points" />
            <mxPoint y="10" as="sourcePoint" />
            <mxPoint x="20" y="10" as="targetPoint" />
          </mxGeometry>
        </mxCell>
        <mxCell id="R5z1-6jqIsE6iVicjENk-189" style="vsdxID=13;edgeStyle=none;startArrow=none;endArrow=classic;startSize=5;endSize=5;strokeColor=#000000;spacingTop=0;spacingBottom=0;spacingLeft=0;spacingRight=0;verticalAlign=middle;html=1;labelBackgroundColor=#ffffff;rounded=0;" parent="R5z1-6jqIsE6iVicjENk-181" edge="1">
          <mxGeometry relative="1" as="geometry">
            <mxPoint as="offset" />
            <Array as="points" />
            <mxPoint y="30" as="sourcePoint" />
            <mxPoint x="20" y="30" as="targetPoint" />
          </mxGeometry>
        </mxCell>
        <mxCell id="R5z1-6jqIsE6iVicjENk-190" style="vsdxID=5;fillColor=none;gradientColor=none;strokeColor=none;labelBackgroundColor=none;rounded=0;html=1;whiteSpace=wrap;" parent="1" vertex="1">
          <mxGeometry x="420" y="660" width="40" height="40" as="geometry" />
        </mxCell>
        <mxCell id="R5z1-6jqIsE6iVicjENk-191" style="vsdxID=8;fillColor=#ffffff;gradientColor=none;shape=stencil(UzV2Ls5ILEhVNTIoLinKz04tz0wpyVA1dlE1MsrMy0gtyiwBslSNXVWNndPyi1LTi/JL81Ig/IJEkEoQKze/DGRCBUSfoYEBSI+RQSWEb24K5rpB1OZk5uFRa4RHLapKA2IVwqwgyn5UtwIZCE+mZebkQMIIWR49UIBCkAA1dgUA);strokeColor=#000000;labelBackgroundColor=#ffffff;rounded=0;html=1;whiteSpace=wrap;" parent="R5z1-6jqIsE6iVicjENk-190" vertex="1">
          <mxGeometry x="20" width="20" height="40" as="geometry" />
        </mxCell>
        <mxCell id="R5z1-6jqIsE6iVicjENk-192" value="&lt;font style=&quot;font-size:11px;font-family:Calibri;color:#000000;direction:ltr;letter-spacing:0px;line-height:120%;opacity:1&quot;&gt;0&lt;br/&gt;&lt;/font&gt;" style="verticalAlign=middle;align=center;vsdxID=9;fillColor=none;gradientColor=none;shape=stencil(nZBLDoAgDERP0z3SIyjew0SURgSD+Lu9kMZoXLhwN9O+tukAlrNpJg1SzDH4QW/URgNYgZTkjA4UkwJUgGXng+6DX1zLfmoymdXo17xh5zmRJ6Q42BWCfc2oJfdAr+Yv+AP9Cb7OJ3H/2JG1HNGz/84klThPVCc=);strokeColor=none;spacingTop=-3;spacingBottom=-3;spacingLeft=-3;spacingRight=-3;labelBackgroundColor=none;rounded=0;html=1;whiteSpace=wrap;" parent="R5z1-6jqIsE6iVicjENk-190" vertex="1">
          <mxGeometry x="20" y="5" width="10" height="10" as="geometry" />
        </mxCell>
        <mxCell id="R5z1-6jqIsE6iVicjENk-193" value="&lt;font style=&quot;font-size:11px;font-family:Calibri;color:#000000;direction:ltr;letter-spacing:0px;line-height:120%;opacity:1&quot;&gt;1&lt;br/&gt;&lt;/font&gt;" style="verticalAlign=middle;align=center;vsdxID=10;fillColor=none;gradientColor=none;shape=stencil(nZBLDoAgDERP0z3SIyjew0SURgSD+Lu9kMZoXLhwN9O+tukAlrNpJg1SzDH4QW/URgNYgZTkjA4UkwJUgGXng+6DX1zLfmoymdXo17xh5zmRJ6Q42BWCfc2oJfdAr+Yv+AP9Cb7OJ3H/2JG1HNGz/84klThPVCc=);strokeColor=none;spacingTop=-3;spacingBottom=-3;spacingLeft=-3;spacingRight=-3;labelBackgroundColor=none;rounded=0;html=1;whiteSpace=wrap;" parent="R5z1-6jqIsE6iVicjENk-190" vertex="1">
          <mxGeometry x="20" y="25" width="10" height="10" as="geometry" />
        </mxCell>
        <mxCell id="R5z1-6jqIsE6iVicjENk-194" style="vsdxID=6;edgeStyle=none;startArrow=none;endArrow=classic;startSize=5;endSize=5;strokeColor=#000000;spacingTop=0;spacingBottom=0;spacingLeft=0;spacingRight=0;verticalAlign=middle;html=1;labelBackgroundColor=#ffffff;rounded=0;" parent="R5z1-6jqIsE6iVicjENk-190" edge="1">
          <mxGeometry relative="1" as="geometry">
            <mxPoint as="offset" />
            <Array as="points" />
            <mxPoint y="10" as="sourcePoint" />
            <mxPoint x="20" y="10" as="targetPoint" />
          </mxGeometry>
        </mxCell>
        <mxCell id="R5z1-6jqIsE6iVicjENk-195" style="vsdxID=7;edgeStyle=none;startArrow=none;endArrow=classic;startSize=5;endSize=5;strokeColor=#000000;spacingTop=0;spacingBottom=0;spacingLeft=0;spacingRight=0;verticalAlign=middle;html=1;labelBackgroundColor=#ffffff;rounded=0;" parent="R5z1-6jqIsE6iVicjENk-190" edge="1">
          <mxGeometry relative="1" as="geometry">
            <mxPoint as="offset" />
            <Array as="points" />
            <mxPoint y="30" as="sourcePoint" />
            <mxPoint x="20" y="30" as="targetPoint" />
          </mxGeometry>
        </mxCell>
        <mxCell id="R5z1-6jqIsE6iVicjENk-196" value="" style="endArrow=none;html=1;rounded=0;entryX=0.04;entryY=0.199;entryDx=0;entryDy=0;entryPerimeter=0;" parent="1" target="R5z1-6jqIsE6iVicjENk-181" edge="1">
          <mxGeometry width="50" height="50" relative="1" as="geometry">
            <mxPoint x="460" y="679.92" as="sourcePoint" />
            <mxPoint x="480" y="680" as="targetPoint" />
          </mxGeometry>
        </mxCell>
        <mxCell id="R5z1-6jqIsE6iVicjENk-197" value="" style="endArrow=none;html=1;rounded=0;" parent="1" edge="1">
          <mxGeometry width="50" height="50" relative="1" as="geometry">
            <mxPoint x="200" y="670" as="sourcePoint" />
            <mxPoint x="420" y="670" as="targetPoint" />
          </mxGeometry>
        </mxCell>
        <mxCell id="R5z1-6jqIsE6iVicjENk-198" value="" style="endArrow=none;html=1;rounded=0;startArrow=oval;startFill=1;entryX=0.004;entryY=0.195;entryDx=0;entryDy=0;entryPerimeter=0;" parent="1" target="R5z1-6jqIsE6iVicjENk-172" edge="1">
          <mxGeometry width="50" height="50" relative="1" as="geometry">
            <mxPoint x="350.65" y="670" as="sourcePoint" />
            <mxPoint x="350" y="690" as="targetPoint" />
          </mxGeometry>
        </mxCell>
        <mxCell id="R5z1-6jqIsE6iVicjENk-200" value="" style="endArrow=classic;html=1;rounded=0;" parent="1" edge="1">
          <mxGeometry width="50" height="50" relative="1" as="geometry">
            <mxPoint x="540" y="680" as="sourcePoint" />
            <mxPoint x="600" y="680" as="targetPoint" />
          </mxGeometry>
        </mxCell>
        <mxCell id="R5z1-6jqIsE6iVicjENk-202" value="" style="endArrow=classic;html=1;rounded=0;" parent="1" edge="1">
          <mxGeometry width="50" height="50" relative="1" as="geometry">
            <mxPoint x="540" y="780" as="sourcePoint" />
            <mxPoint x="600" y="780" as="targetPoint" />
          </mxGeometry>
        </mxCell>
        <mxCell id="R5z1-6jqIsE6iVicjENk-203" value="" style="endArrow=none;html=1;rounded=0;" parent="1" edge="1">
          <mxGeometry width="50" height="50" relative="1" as="geometry">
            <mxPoint x="490" y="860" as="sourcePoint" />
            <mxPoint x="490" y="800" as="targetPoint" />
          </mxGeometry>
        </mxCell>
        <mxCell id="R5z1-6jqIsE6iVicjENk-205" value="" style="endArrow=classic;html=1;rounded=0;startArrow=oval;startFill=1;" parent="1" edge="1">
          <mxGeometry width="50" height="50" relative="1" as="geometry">
            <mxPoint x="560" y="780" as="sourcePoint" />
            <mxPoint x="560" y="860" as="targetPoint" />
          </mxGeometry>
        </mxCell>
        <mxCell id="R5z1-6jqIsE6iVicjENk-206" value="" style="endArrow=classic;html=1;rounded=0;startArrow=oval;startFill=1;" parent="1" edge="1">
          <mxGeometry width="50" height="50" relative="1" as="geometry">
            <mxPoint x="419.72" y="790" as="sourcePoint" />
            <mxPoint x="420" y="860" as="targetPoint" />
          </mxGeometry>
        </mxCell>
        <mxCell id="R5z1-6jqIsE6iVicjENk-207" value="" style="endArrow=none;html=1;rounded=0;" parent="1" edge="1">
          <mxGeometry width="50" height="50" relative="1" as="geometry">
            <mxPoint x="400" y="690" as="sourcePoint" />
            <mxPoint x="420" y="690" as="targetPoint" />
          </mxGeometry>
        </mxCell>
        <mxCell id="R5z1-6jqIsE6iVicjENk-208" value="" style="endArrow=none;html=1;rounded=0;" parent="1" edge="1">
          <mxGeometry width="50" height="50" relative="1" as="geometry">
            <mxPoint x="400" y="790" as="sourcePoint" />
            <mxPoint x="420" y="790" as="targetPoint" />
          </mxGeometry>
        </mxCell>
        <mxCell id="R5z1-6jqIsE6iVicjENk-209" value="" style="endArrow=none;html=1;rounded=0;" parent="1" edge="1">
          <mxGeometry width="50" height="50" relative="1" as="geometry">
            <mxPoint x="330" y="860" as="sourcePoint" />
            <mxPoint x="330" y="810" as="targetPoint" />
          </mxGeometry>
        </mxCell>
        <mxCell id="R5z1-6jqIsE6iVicjENk-211" value="" style="endArrow=none;html=1;rounded=0;startArrow=oval;startFill=1;" parent="1" edge="1">
          <mxGeometry width="50" height="50" relative="1" as="geometry">
            <mxPoint x="490" y="800" as="sourcePoint" />
            <mxPoint x="490" y="700" as="targetPoint" />
          </mxGeometry>
        </mxCell>
        <mxCell id="R5z1-6jqIsE6iVicjENk-212" value="" style="endArrow=none;html=1;rounded=0;startArrow=oval;startFill=1;" parent="1" edge="1">
          <mxGeometry width="50" height="50" relative="1" as="geometry">
            <mxPoint x="330" y="810" as="sourcePoint" />
            <mxPoint x="330" y="710" as="targetPoint" />
          </mxGeometry>
        </mxCell>
        <mxCell id="R5z1-6jqIsE6iVicjENk-213" value="" style="endArrow=none;html=1;rounded=0;" parent="1" edge="1">
          <mxGeometry width="50" height="50" relative="1" as="geometry">
            <mxPoint x="330" y="810" as="sourcePoint" />
            <mxPoint x="360" y="810" as="targetPoint" />
          </mxGeometry>
        </mxCell>
        <mxCell id="R5z1-6jqIsE6iVicjENk-215" value="" style="endArrow=none;html=1;rounded=0;" parent="1" edge="1">
          <mxGeometry width="50" height="50" relative="1" as="geometry">
            <mxPoint x="330" y="710" as="sourcePoint" />
            <mxPoint x="350.65" y="710" as="targetPoint" />
          </mxGeometry>
        </mxCell>
        <mxCell id="R5z1-6jqIsE6iVicjENk-216" value="" style="endArrow=classic;html=1;rounded=0;exitX=1.013;exitY=-0.013;exitDx=0;exitDy=0;exitPerimeter=0;entryX=1.066;entryY=1;entryDx=0;entryDy=0;entryPerimeter=0;" parent="1" source="R5z1-6jqIsE6iVicjENk-165" target="R5z1-6jqIsE6iVicjENk-193" edge="1">
          <mxGeometry width="50" height="50" relative="1" as="geometry">
            <mxPoint x="450" y="759.8927613941019" as="sourcePoint" />
            <mxPoint x="450.65" y="700" as="targetPoint" />
          </mxGeometry>
        </mxCell>
        <mxCell id="R5z1-6jqIsE6iVicjENk-217" value="" style="endArrow=classic;html=1;rounded=0;entryX=0.501;entryY=0.877;entryDx=0;entryDy=0;entryPerimeter=0;" parent="1" target="R5z1-6jqIsE6iVicjENk-164" edge="1">
          <mxGeometry width="50" height="50" relative="1" as="geometry">
            <mxPoint x="450" y="860" as="sourcePoint" />
            <mxPoint x="480" y="810" as="targetPoint" />
          </mxGeometry>
        </mxCell>
        <mxCell id="R5z1-6jqIsE6iVicjENk-219" value="" style="endArrow=classic;html=1;rounded=0;startArrow=oval;startFill=1;" parent="1" edge="1">
          <mxGeometry width="50" height="50" relative="1" as="geometry">
            <mxPoint x="300" y="770" as="sourcePoint" />
            <mxPoint x="299.8" y="860" as="targetPoint" />
          </mxGeometry>
        </mxCell>
        <mxCell id="R5z1-6jqIsE6iVicjENk-220" value="" style="endArrow=none;html=1;rounded=0;" parent="1" target="R5z1-6jqIsE6iVicjENk-133" edge="1">
          <mxGeometry width="50" height="50" relative="1" as="geometry">
            <mxPoint x="200" y="770" as="sourcePoint" />
            <mxPoint x="420" y="770" as="targetPoint" />
          </mxGeometry>
        </mxCell>
        <mxCell id="R5z1-6jqIsE6iVicjENk-133" value="In_Valid" style="text;html=1;align=right;verticalAlign=middle;whiteSpace=wrap;rounded=0;" parent="1" vertex="1">
          <mxGeometry x="140" y="760" width="60" height="20" as="geometry" />
        </mxCell>
      </root>
    </mxGraphModel>
  </diagram>
  <diagram id="ohUDpEAhXnJUWiT2Vc1L" name="olo_base_delay">
    <mxGraphModel dx="787" dy="482" grid="1" gridSize="10" guides="1" tooltips="1" connect="1" arrows="1" fold="1" page="1" pageScale="1" pageWidth="10000" pageHeight="10000" math="0" shadow="0">
      <root>
        <mxCell id="0" />
        <mxCell id="1" parent="0" />
        <mxCell id="CsmfyTOUY5dM9iub64k_-1" value="AXI4-Stream&lt;div&gt;Master&lt;/div&gt;" style="rounded=1;whiteSpace=wrap;html=1;fillColor=#f8cecc;strokeColor=#b85450;" vertex="1" parent="1">
          <mxGeometry x="320" y="160" width="120" height="80" as="geometry" />
        </mxCell>
        <mxCell id="CsmfyTOUY5dM9iub64k_-2" value="AXI4-Stream&lt;div&gt;Slave&lt;/div&gt;" style="rounded=1;whiteSpace=wrap;html=1;fillColor=#f8cecc;strokeColor=#b85450;" vertex="1" parent="1">
          <mxGeometry x="760" y="160" width="120" height="100" as="geometry" />
        </mxCell>
        <mxCell id="CsmfyTOUY5dM9iub64k_-3" value="Data" style="endArrow=classic;html=1;rounded=0;" edge="1" parent="1">
          <mxGeometry width="50" height="50" relative="1" as="geometry">
            <mxPoint x="440" y="180" as="sourcePoint" />
            <mxPoint x="760" y="180" as="targetPoint" />
          </mxGeometry>
        </mxCell>
        <mxCell id="CsmfyTOUY5dM9iub64k_-4" value="Valid" style="endArrow=classic;html=1;rounded=0;" edge="1" parent="1">
          <mxGeometry width="50" height="50" relative="1" as="geometry">
            <mxPoint x="440" y="199.71" as="sourcePoint" />
            <mxPoint x="760" y="200" as="targetPoint" />
          </mxGeometry>
        </mxCell>
        <mxCell id="CsmfyTOUY5dM9iub64k_-5" value="Ready" style="endArrow=none;html=1;rounded=0;startArrow=classic;startFill=1;endFill=0;" edge="1" parent="1">
          <mxGeometry width="50" height="50" relative="1" as="geometry">
            <mxPoint x="440" y="220" as="sourcePoint" />
            <mxPoint x="760" y="220" as="targetPoint" />
          </mxGeometry>
        </mxCell>
        <mxCell id="CsmfyTOUY5dM9iub64k_-6" value="&lt;i&gt;olo_base_delay&lt;/i&gt;" style="rounded=1;whiteSpace=wrap;html=1;fillColor=#dae8fc;strokeColor=#6c8ebf;" vertex="1" parent="1">
          <mxGeometry x="560" y="280" width="120" height="80" as="geometry" />
        </mxCell>
        <mxCell id="CsmfyTOUY5dM9iub64k_-7" value="In_Data" style="text;html=1;align=left;verticalAlign=middle;whiteSpace=wrap;rounded=0;fontSize=8;" vertex="1" parent="1">
          <mxGeometry x="560" y="290" width="60" height="20" as="geometry" />
        </mxCell>
        <mxCell id="CsmfyTOUY5dM9iub64k_-8" value="In_Valid" style="text;html=1;align=left;verticalAlign=middle;whiteSpace=wrap;rounded=0;fontSize=8;" vertex="1" parent="1">
          <mxGeometry x="560" y="330" width="60" height="20" as="geometry" />
        </mxCell>
        <mxCell id="CsmfyTOUY5dM9iub64k_-9" value="Out_Data" style="text;html=1;align=right;verticalAlign=middle;whiteSpace=wrap;rounded=0;fontSize=8;" vertex="1" parent="1">
          <mxGeometry x="620" y="290" width="60" height="20" as="geometry" />
        </mxCell>
        <mxCell id="CsmfyTOUY5dM9iub64k_-10" value="" style="endArrow=classic;html=1;rounded=0;startArrow=oval;startFill=1;" edge="1" parent="1">
          <mxGeometry width="50" height="50" relative="1" as="geometry">
            <mxPoint x="520" y="180" as="sourcePoint" />
            <mxPoint x="560" y="300" as="targetPoint" />
            <Array as="points">
              <mxPoint x="520" y="300" />
            </Array>
          </mxGeometry>
        </mxCell>
        <mxCell id="CsmfyTOUY5dM9iub64k_-11" style="vsdxID=5;fillColor=none;gradientColor=none;strokeColor=none;labelBackgroundColor=none;rounded=0;html=1;whiteSpace=wrap;" vertex="1" parent="1">
          <mxGeometry x="490" y="320" width="40" height="40" as="geometry" />
        </mxCell>
        <mxCell id="CsmfyTOUY5dM9iub64k_-12" style="vsdxID=6;fillColor=#FFFFFF;gradientColor=none;shape=stencil(nZBLDoAgDERP0z3SIyjew0SURgSD+Lu9kMZoXLhwN9O+tukAlrNpJg1SzDH4QW/URgNYgZTkjA4UkwJUgGXng+6DX1zLfmoymdXo17xh5zmRJ6Q42BWCfc2oJfdAr+Yv+AP9Cb7OJ3H/2JG1HNGz/84klThPVCc=);strokeColor=#000000;labelBackgroundColor=none;rounded=0;html=1;whiteSpace=wrap;" vertex="1" parent="CsmfyTOUY5dM9iub64k_-11">
          <mxGeometry x="20" width="20" height="40" as="geometry" />
        </mxCell>
        <mxCell id="CsmfyTOUY5dM9iub64k_-13" value="&lt;font style=&quot;font-size:11px;font-family:Calibri;color:#000000;direction:ltr;letter-spacing:0px;line-height:120%;opacity:1&quot;&gt;&amp;amp;&lt;br/&gt;&lt;/font&gt;" style="verticalAlign=middle;align=center;vsdxID=7;fillColor=none;gradientColor=none;shape=stencil(nZBLDoAgDERP0z3SIyjew0SURgSD+Lu9kMZoXLhwN9O+tukAlrNpJg1SzDH4QW/URgNYgZTkjA4UkwJUgGXng+6DX1zLfmoymdXo17xh5zmRJ6Q42BWCfc2oJfdAr+Yv+AP9Cb7OJ3H/2JG1HNGz/84klThPVCc=);strokeColor=none;spacingTop=-3;spacingBottom=-3;spacingLeft=-3;spacingRight=-3;labelBackgroundColor=none;rounded=0;html=1;whiteSpace=wrap;" vertex="1" parent="CsmfyTOUY5dM9iub64k_-11">
          <mxGeometry x="20" y="10" width="20" height="20" as="geometry" />
        </mxCell>
        <mxCell id="CsmfyTOUY5dM9iub64k_-14" style="vsdxID=8;edgeStyle=none;startArrow=none;endArrow=classic;startSize=5;endSize=5;strokeColor=#000000;spacingTop=0;spacingBottom=0;spacingLeft=0;spacingRight=0;verticalAlign=middle;html=1;labelBackgroundColor=#ffffff;rounded=0;" edge="1" parent="CsmfyTOUY5dM9iub64k_-11">
          <mxGeometry relative="1" as="geometry">
            <mxPoint as="offset" />
            <Array as="points" />
            <mxPoint y="10" as="sourcePoint" />
            <mxPoint x="20" y="10" as="targetPoint" />
          </mxGeometry>
        </mxCell>
        <mxCell id="CsmfyTOUY5dM9iub64k_-15" style="vsdxID=9;edgeStyle=none;startArrow=none;endArrow=classic;startSize=5;endSize=5;strokeColor=#000000;spacingTop=0;spacingBottom=0;spacingLeft=0;spacingRight=0;verticalAlign=middle;html=1;labelBackgroundColor=#ffffff;rounded=0;" edge="1" parent="CsmfyTOUY5dM9iub64k_-11">
          <mxGeometry relative="1" as="geometry">
            <mxPoint as="offset" />
            <Array as="points" />
            <mxPoint y="30" as="sourcePoint" />
            <mxPoint x="20" y="30" as="targetPoint" />
          </mxGeometry>
        </mxCell>
        <mxCell id="CsmfyTOUY5dM9iub64k_-16" value="" style="endArrow=classic;html=1;rounded=0;entryX=0;entryY=0.5;entryDx=0;entryDy=0;" edge="1" parent="1" target="CsmfyTOUY5dM9iub64k_-8">
          <mxGeometry width="50" height="50" relative="1" as="geometry">
            <mxPoint x="530" y="340" as="sourcePoint" />
            <mxPoint x="580" y="300" as="targetPoint" />
          </mxGeometry>
        </mxCell>
        <mxCell id="CsmfyTOUY5dM9iub64k_-17" value="" style="endArrow=none;html=1;rounded=0;startArrow=oval;startFill=1;entryX=0;entryY=0.25;entryDx=0;entryDy=0;" edge="1" parent="1" target="CsmfyTOUY5dM9iub64k_-11">
          <mxGeometry width="50" height="50" relative="1" as="geometry">
            <mxPoint x="490" y="220" as="sourcePoint" />
            <mxPoint x="480" y="240" as="targetPoint" />
          </mxGeometry>
        </mxCell>
        <mxCell id="CsmfyTOUY5dM9iub64k_-18" value="" style="endArrow=none;html=1;rounded=0;startArrow=oval;startFill=1;entryX=0;entryY=0.75;entryDx=0;entryDy=0;" edge="1" parent="1" target="CsmfyTOUY5dM9iub64k_-11">
          <mxGeometry width="50" height="50" relative="1" as="geometry">
            <mxPoint x="470" y="200" as="sourcePoint" />
            <mxPoint x="470" y="310" as="targetPoint" />
            <Array as="points">
              <mxPoint x="470" y="350" />
            </Array>
          </mxGeometry>
        </mxCell>
        <mxCell id="CsmfyTOUY5dM9iub64k_-19" value="Data_Delayed" style="endArrow=classic;html=1;rounded=0;" edge="1" parent="1">
          <mxGeometry width="50" height="50" relative="1" as="geometry">
            <mxPoint x="680" y="299.71" as="sourcePoint" />
            <mxPoint x="760" y="240" as="targetPoint" />
            <Array as="points">
              <mxPoint x="720" y="300" />
              <mxPoint x="720" y="240" />
            </Array>
          </mxGeometry>
        </mxCell>
      </root>
    </mxGraphModel>
  </diagram>
</mxfile>
